G75*
G70*
%OFA0B0*%
%FSLAX24Y24*%
%IPPOS*%
%LPD*%
%AMOC8*
5,1,8,0,0,1.08239X$1,22.5*
%
%ADD10C,0.0635*%
%ADD11R,0.0635X0.0635*%
%ADD12C,0.0650*%
%ADD13R,0.0650X0.0650*%
%ADD14C,0.0740*%
%ADD15C,0.0720*%
%ADD16R,0.0787X0.0591*%
%ADD17R,0.0787X0.1496*%
%ADD18C,0.1660*%
%ADD19C,0.1580*%
%ADD20C,0.0240*%
D10*
X004898Y011427D03*
X005685Y011427D03*
X006473Y011427D03*
X007260Y011427D03*
X008047Y011427D03*
X008835Y011427D03*
X009622Y011427D03*
X010410Y011427D03*
X011197Y011427D03*
X011984Y011427D03*
X011984Y020089D03*
X011197Y020089D03*
X010410Y020089D03*
X009622Y020089D03*
X008835Y020089D03*
X008047Y020089D03*
X007260Y020089D03*
X006473Y020089D03*
X005685Y020089D03*
X004898Y020089D03*
D11*
X007260Y021958D03*
X007260Y022958D03*
X008260Y022958D03*
X008260Y021958D03*
X009260Y021958D03*
X009260Y022958D03*
X010260Y022958D03*
X010260Y021958D03*
X011260Y021958D03*
X011260Y022958D03*
D12*
X001860Y012008D03*
X001626Y007758D03*
X003595Y007758D03*
D13*
X001860Y013008D03*
D14*
X012860Y006258D03*
X013860Y006258D03*
X013360Y012758D03*
X013360Y015758D03*
D15*
X001970Y018008D02*
X001250Y018008D01*
X001250Y019008D02*
X001970Y019008D01*
X001970Y020008D02*
X001250Y020008D01*
D16*
X001120Y010664D03*
X001120Y009758D03*
X001120Y008853D03*
D17*
X003601Y009758D03*
D18*
X002110Y005972D03*
D19*
X002120Y003110D03*
X003611Y004721D03*
D20*
X003662Y004771D01*
X001860Y007758D02*
X001626Y007758D01*
X001360Y008024D01*
X001360Y008258D01*
X001360Y008612D01*
X001120Y008853D01*
X001120Y010664D02*
X001120Y011268D01*
X001860Y012008D01*
X001860Y013008D02*
X003360Y013008D01*
X003601Y013008D01*
X003601Y009758D01*
X004898Y011427D02*
X004860Y011465D01*
X005654Y012258D01*
X009360Y012258D01*
X011360Y012258D01*
X014360Y015258D01*
X014360Y020258D01*
X013360Y021258D01*
X011960Y021258D01*
X011260Y021958D01*
X010260Y021958D02*
X009860Y020758D01*
X008360Y020758D01*
X008047Y020089D01*
X008260Y022958D02*
X008260Y023358D01*
X007860Y023758D01*
X006860Y023758D01*
X005685Y022583D01*
X005685Y020089D01*
X001610Y019008D02*
X010110Y019008D01*
X010410Y019307D01*
X010410Y020089D01*
X011197Y020089D02*
X011197Y019095D01*
X010110Y018008D01*
X001610Y018008D01*
X003360Y013008D02*
X009610Y013008D01*
X012360Y015758D01*
X011984Y016134D01*
X011984Y017134D01*
X011984Y020089D01*
X012360Y015758D02*
X013360Y015758D01*
M02*
