G75*
G70*
%OFA0B0*%
%FSLAX24Y24*%
%IPPOS*%
%LPD*%
%AMOC8*
5,1,8,0,0,1.08239X$1,22.5*
%
%ADD10C,0.0635*%
%ADD11R,0.0635X0.0635*%
%ADD12C,0.0650*%
%ADD13R,0.0650X0.0650*%
%ADD14C,0.0740*%
%ADD15C,0.0720*%
%ADD16C,0.1660*%
%ADD17C,0.1580*%
%ADD18C,0.0240*%
%ADD19C,0.0160*%
D10*
X004898Y011427D03*
X005685Y011427D03*
X006473Y011427D03*
X007260Y011427D03*
X008047Y011427D03*
X008835Y011427D03*
X009622Y011427D03*
X010410Y011427D03*
X011197Y011427D03*
X011984Y011427D03*
X011984Y020089D03*
X011197Y020089D03*
X010410Y020089D03*
X009622Y020089D03*
X008835Y020089D03*
X008047Y020089D03*
X007260Y020089D03*
X006473Y020089D03*
X005685Y020089D03*
X004898Y020089D03*
D11*
X007260Y021958D03*
X007260Y022958D03*
X008260Y022958D03*
X008260Y021958D03*
X009260Y021958D03*
X009260Y022958D03*
X010260Y022958D03*
X010260Y021958D03*
X011260Y021958D03*
X011260Y022958D03*
D12*
X001860Y012008D03*
X001626Y007758D03*
X003595Y007758D03*
D13*
X001860Y013008D03*
D14*
X012860Y006258D03*
X013860Y006258D03*
X013360Y012758D03*
X013360Y015758D03*
D15*
X001970Y018008D02*
X001250Y018008D01*
X001250Y019008D02*
X001970Y019008D01*
X001970Y020008D02*
X001250Y020008D01*
D16*
X002110Y005972D03*
D17*
X003611Y004721D03*
X002120Y003110D03*
D18*
X002110Y005972D02*
X001626Y006456D01*
X001626Y007758D01*
X001860Y013008D02*
X001860Y013758D01*
X002860Y014758D01*
X002860Y020758D01*
X003360Y021258D01*
X004860Y022758D01*
X005060Y022958D01*
X007260Y022958D01*
X008260Y021958D02*
X007860Y021258D01*
X004360Y021258D01*
X003860Y020758D01*
X003860Y017758D01*
X005685Y015933D01*
X005685Y011427D01*
X007860Y019258D02*
X012360Y019258D01*
X012860Y019258D01*
X013360Y019758D01*
X013360Y020758D01*
X012860Y021258D01*
X012360Y021758D01*
X012360Y023258D01*
X011860Y023758D01*
X011360Y023758D01*
X010060Y023758D01*
X009860Y023758D01*
X009360Y023258D01*
X009360Y023058D01*
X009260Y022958D01*
X009260Y021958D02*
X008860Y020758D01*
X006860Y020758D01*
X006473Y020089D01*
X007260Y020089D02*
X007260Y019859D01*
X007860Y019258D01*
X011197Y011427D02*
X011197Y010921D01*
X011360Y010758D01*
X011860Y010758D01*
X012860Y009758D01*
X012860Y006258D01*
X013860Y006258D02*
X013860Y012258D01*
X013360Y012758D01*
D19*
X000360Y001938D02*
X000360Y024328D01*
X015180Y024328D01*
X015180Y001938D01*
X011860Y001938D01*
X011860Y010258D01*
X004610Y010258D01*
X004610Y010188D01*
X004536Y010188D01*
X004430Y010083D01*
X004430Y005273D01*
X004161Y005543D01*
X003804Y005691D01*
X003691Y005691D01*
X003691Y004801D01*
X003531Y004801D01*
X003531Y004641D01*
X002641Y004641D01*
X002641Y004528D01*
X002789Y004171D01*
X003062Y003898D01*
X003418Y003751D01*
X003531Y003751D01*
X003531Y004641D01*
X003691Y004641D01*
X003691Y003751D01*
X003804Y003751D01*
X004161Y003898D01*
X004430Y004168D01*
X004430Y001938D01*
X000360Y001938D01*
X000360Y001978D02*
X004430Y001978D01*
X004430Y002136D02*
X000360Y002136D01*
X000360Y002295D02*
X001563Y002295D01*
X001571Y002287D02*
X001927Y002140D01*
X002040Y002140D01*
X002040Y003029D01*
X002200Y003029D01*
X002200Y002140D01*
X002313Y002140D01*
X002670Y002287D01*
X002943Y002560D01*
X003090Y002917D01*
X003090Y003030D01*
X002201Y003030D01*
X002201Y003190D01*
X003090Y003190D01*
X003090Y003303D01*
X002943Y003659D01*
X002670Y003932D01*
X002313Y004080D01*
X002200Y004080D01*
X002200Y003190D01*
X002040Y003190D01*
X002040Y003030D01*
X001150Y003030D01*
X001150Y002917D01*
X001298Y002560D01*
X001571Y002287D01*
X001405Y002453D02*
X000360Y002453D01*
X000360Y002612D02*
X001277Y002612D01*
X001211Y002770D02*
X000360Y002770D01*
X000360Y002929D02*
X001150Y002929D01*
X001150Y003190D02*
X002040Y003190D01*
X002040Y004080D01*
X001927Y004080D01*
X001571Y003932D01*
X001298Y003659D01*
X001150Y003303D01*
X001150Y003190D01*
X001150Y003246D02*
X000360Y003246D01*
X000360Y003088D02*
X002040Y003088D01*
X002040Y003246D02*
X002200Y003246D01*
X002201Y003088D02*
X004430Y003088D01*
X004430Y003246D02*
X003090Y003246D01*
X003048Y003405D02*
X004430Y003405D01*
X004430Y003563D02*
X002983Y003563D01*
X002880Y003722D02*
X004430Y003722D01*
X004430Y003880D02*
X004117Y003880D01*
X004301Y004039D02*
X004430Y004039D01*
X003691Y004039D02*
X003531Y004039D01*
X003531Y004197D02*
X003691Y004197D01*
X003691Y004356D02*
X003531Y004356D01*
X003531Y004514D02*
X003691Y004514D01*
X003531Y004673D02*
X000360Y004673D01*
X000360Y004831D02*
X002641Y004831D01*
X002641Y004801D02*
X003531Y004801D01*
X003531Y005691D01*
X003418Y005691D01*
X003079Y005550D01*
X003089Y005567D01*
X003160Y005834D01*
X003160Y006110D01*
X003089Y006377D01*
X002951Y006616D01*
X002755Y006812D01*
X002516Y006950D01*
X002249Y007022D01*
X001972Y007022D01*
X001966Y007020D01*
X001966Y007327D01*
X002088Y007449D01*
X002171Y007650D01*
X002171Y007866D01*
X002088Y008067D01*
X001935Y008220D01*
X001735Y008303D01*
X001518Y008303D01*
X001317Y008220D01*
X001164Y008067D01*
X001081Y007866D01*
X001081Y007650D01*
X001164Y007449D01*
X001286Y007327D01*
X001286Y006632D01*
X001270Y006616D01*
X001132Y006377D01*
X001061Y006110D01*
X001061Y005834D01*
X001132Y005567D01*
X001270Y005327D01*
X001466Y005132D01*
X001705Y004993D01*
X001972Y004922D01*
X002249Y004922D01*
X002516Y004993D01*
X002724Y005114D01*
X002641Y004914D01*
X002641Y004801D01*
X002673Y004990D02*
X002503Y004990D01*
X002647Y004514D02*
X000360Y004514D01*
X000360Y004356D02*
X002713Y004356D01*
X002778Y004197D02*
X000360Y004197D01*
X000360Y004039D02*
X001829Y004039D01*
X002040Y004039D02*
X002200Y004039D01*
X002200Y003880D02*
X002040Y003880D01*
X002040Y003722D02*
X002200Y003722D01*
X002200Y003563D02*
X002040Y003563D01*
X002040Y003405D02*
X002200Y003405D01*
X002200Y002929D02*
X002040Y002929D01*
X002040Y002770D02*
X002200Y002770D01*
X002200Y002612D02*
X002040Y002612D01*
X002040Y002453D02*
X002200Y002453D01*
X002200Y002295D02*
X002040Y002295D01*
X002677Y002295D02*
X004430Y002295D01*
X004430Y002453D02*
X002836Y002453D01*
X002964Y002612D02*
X004430Y002612D01*
X004430Y002770D02*
X003030Y002770D01*
X003090Y002929D02*
X004430Y002929D01*
X003691Y003880D02*
X003531Y003880D01*
X003106Y003880D02*
X002722Y003880D01*
X002922Y004039D02*
X002412Y004039D01*
X001718Y004990D02*
X000360Y004990D01*
X000360Y005149D02*
X001449Y005149D01*
X001290Y005307D02*
X000360Y005307D01*
X000360Y005466D02*
X001190Y005466D01*
X001117Y005624D02*
X000360Y005624D01*
X000360Y005783D02*
X001074Y005783D01*
X001061Y005941D02*
X000360Y005941D01*
X000360Y006100D02*
X001061Y006100D01*
X001100Y006258D02*
X000360Y006258D01*
X000360Y006417D02*
X001155Y006417D01*
X001247Y006575D02*
X000360Y006575D01*
X000360Y006734D02*
X001286Y006734D01*
X001286Y006893D02*
X000360Y006893D01*
X000360Y007051D02*
X001286Y007051D01*
X001286Y007210D02*
X000360Y007210D01*
X000360Y007368D02*
X001245Y007368D01*
X001132Y007527D02*
X000360Y007527D01*
X000360Y007685D02*
X001081Y007685D01*
X001081Y007844D02*
X000360Y007844D01*
X000360Y008002D02*
X001138Y008002D01*
X001258Y008161D02*
X000360Y008161D01*
X000360Y008319D02*
X004430Y008319D01*
X004430Y008161D02*
X003906Y008161D01*
X003881Y008186D02*
X004023Y008044D01*
X004100Y007859D01*
X004100Y007758D01*
X003595Y007758D01*
X003595Y007758D01*
X004100Y007758D01*
X004100Y007658D01*
X004023Y007472D01*
X003881Y007330D01*
X003695Y007253D01*
X003595Y007253D01*
X003595Y007758D01*
X003594Y007758D01*
X003090Y007758D01*
X003090Y007658D01*
X003167Y007472D01*
X003309Y007330D01*
X003494Y007253D01*
X003594Y007253D01*
X003594Y007758D01*
X003594Y007758D01*
X003090Y007758D01*
X003090Y007859D01*
X003167Y008044D01*
X003309Y008186D01*
X003494Y008263D01*
X003594Y008263D01*
X003594Y007759D01*
X003595Y007759D01*
X003595Y008263D01*
X003695Y008263D01*
X003881Y008186D01*
X004040Y008002D02*
X004430Y008002D01*
X004430Y007844D02*
X004100Y007844D01*
X004100Y007685D02*
X004430Y007685D01*
X004430Y007527D02*
X004045Y007527D01*
X003919Y007368D02*
X004430Y007368D01*
X004430Y007210D02*
X001966Y007210D01*
X001966Y007051D02*
X004430Y007051D01*
X004430Y006893D02*
X002615Y006893D01*
X002833Y006734D02*
X004430Y006734D01*
X004430Y006575D02*
X002974Y006575D01*
X003066Y006417D02*
X004430Y006417D01*
X004430Y006258D02*
X003121Y006258D01*
X003160Y006100D02*
X004430Y006100D01*
X004430Y005941D02*
X003160Y005941D01*
X003147Y005783D02*
X004430Y005783D01*
X004430Y005624D02*
X003965Y005624D01*
X003691Y005624D02*
X003531Y005624D01*
X003531Y005466D02*
X003691Y005466D01*
X003691Y005307D02*
X003531Y005307D01*
X003531Y005149D02*
X003691Y005149D01*
X003691Y004990D02*
X003531Y004990D01*
X003531Y004831D02*
X003691Y004831D01*
X003258Y005624D02*
X003104Y005624D01*
X003270Y007368D02*
X002007Y007368D01*
X002120Y007527D02*
X003144Y007527D01*
X003090Y007685D02*
X002171Y007685D01*
X002171Y007844D02*
X003090Y007844D01*
X003149Y008002D02*
X002115Y008002D01*
X001994Y008161D02*
X003283Y008161D01*
X003594Y008161D02*
X003595Y008161D01*
X003594Y008002D02*
X003595Y008002D01*
X003594Y007844D02*
X003595Y007844D01*
X003594Y007685D02*
X003595Y007685D01*
X003594Y007527D02*
X003595Y007527D01*
X003594Y007368D02*
X003595Y007368D01*
X004430Y008478D02*
X000360Y008478D01*
X000360Y008637D02*
X004430Y008637D01*
X004430Y008795D02*
X000360Y008795D01*
X000360Y008954D02*
X004430Y008954D01*
X004430Y009112D02*
X000360Y009112D01*
X000360Y009271D02*
X004430Y009271D01*
X004430Y009429D02*
X000360Y009429D01*
X000360Y009588D02*
X004430Y009588D01*
X004430Y009746D02*
X000360Y009746D01*
X000360Y009905D02*
X004430Y009905D01*
X004430Y010063D02*
X000360Y010063D01*
X000360Y010222D02*
X004610Y010222D01*
X004791Y010890D02*
X004593Y010972D01*
X004442Y011123D01*
X004360Y011320D01*
X004360Y011534D01*
X004442Y011732D01*
X004593Y011883D01*
X004791Y011965D01*
X005005Y011965D01*
X005202Y011883D01*
X005292Y011794D01*
X005345Y011848D01*
X005345Y015792D01*
X003572Y017566D01*
X003520Y017690D01*
X003520Y017826D01*
X003520Y020826D01*
X003572Y020951D01*
X003668Y021046D01*
X004168Y021546D01*
X004293Y021598D01*
X004428Y021598D01*
X006763Y021598D01*
X006763Y021958D01*
X007260Y021958D01*
X007260Y021958D01*
X006763Y021958D01*
X006763Y022350D01*
X006843Y022430D01*
X005013Y022430D01*
X005053Y022470D02*
X005201Y022618D01*
X006723Y022618D01*
X006723Y022549D01*
X006843Y022430D01*
X006763Y022271D02*
X004854Y022271D01*
X004696Y022113D02*
X006763Y022113D01*
X006763Y021954D02*
X004537Y021954D01*
X004379Y021796D02*
X006763Y021796D01*
X006763Y021637D02*
X004220Y021637D01*
X004100Y021479D02*
X004062Y021479D01*
X003942Y021320D02*
X003903Y021320D01*
X003783Y021161D02*
X003745Y021161D01*
X003624Y021003D02*
X003586Y021003D01*
X003553Y020970D02*
X005053Y022470D01*
X005171Y022588D02*
X006723Y022588D01*
X006723Y023298D02*
X004993Y023298D01*
X004868Y023246D01*
X004772Y023151D01*
X004572Y022951D01*
X003072Y021451D01*
X002668Y021046D01*
X002572Y020951D01*
X002520Y020826D01*
X002520Y019196D01*
X002462Y019337D01*
X002299Y019500D01*
X002227Y019530D01*
X002276Y019550D01*
X002428Y019702D01*
X002510Y019901D01*
X002510Y019988D01*
X001631Y019988D01*
X001631Y020028D01*
X002510Y020028D01*
X002510Y020116D01*
X002428Y020314D01*
X002276Y020466D01*
X002078Y020548D01*
X001630Y020548D01*
X001630Y020028D01*
X001590Y020028D01*
X001590Y019988D01*
X000710Y019988D01*
X000710Y019901D01*
X000793Y019702D01*
X000945Y019550D01*
X000994Y019530D01*
X000922Y019500D01*
X000759Y019337D01*
X000670Y019123D01*
X000670Y018893D01*
X000759Y018680D01*
X000922Y018516D01*
X000942Y018508D01*
X000922Y018500D01*
X000759Y018337D01*
X000670Y018123D01*
X000670Y017893D01*
X000759Y017680D01*
X000922Y017516D01*
X001135Y017428D01*
X002086Y017428D01*
X002299Y017516D01*
X002462Y017680D01*
X002520Y017820D01*
X002520Y014899D01*
X001668Y014046D01*
X001572Y013951D01*
X001520Y013826D01*
X001520Y013553D01*
X001444Y013553D01*
X001315Y013424D01*
X001315Y012592D01*
X001444Y012463D01*
X001639Y012463D01*
X001574Y012436D01*
X001432Y012294D01*
X001355Y012109D01*
X001355Y012008D01*
X001355Y011908D01*
X001432Y011722D01*
X001574Y011580D01*
X001760Y011503D01*
X001860Y011503D01*
X001860Y012008D01*
X001355Y012008D01*
X001860Y012008D01*
X001860Y012008D01*
X001861Y012008D01*
X001861Y012008D01*
X002365Y012008D01*
X002365Y011908D01*
X002289Y011722D01*
X002146Y011580D01*
X001961Y011503D01*
X001861Y011503D01*
X001861Y012008D01*
X002365Y012008D01*
X002365Y012109D01*
X002289Y012294D01*
X002146Y012436D01*
X002081Y012463D01*
X002277Y012463D01*
X002405Y012592D01*
X002405Y013424D01*
X002277Y013553D01*
X002200Y013553D01*
X002200Y013617D01*
X003149Y014566D01*
X003200Y014690D01*
X003200Y014826D01*
X003200Y020617D01*
X003553Y020970D01*
X003528Y020844D02*
X003428Y020844D01*
X003520Y020686D02*
X003269Y020686D01*
X003200Y020527D02*
X003520Y020527D01*
X003520Y020369D02*
X003200Y020369D01*
X003200Y020210D02*
X003520Y020210D01*
X003520Y020052D02*
X003200Y020052D01*
X003200Y019893D02*
X003520Y019893D01*
X003520Y019735D02*
X003200Y019735D01*
X003200Y019576D02*
X003520Y019576D01*
X003520Y019417D02*
X003200Y019417D01*
X003200Y019259D02*
X003520Y019259D01*
X003520Y019100D02*
X003200Y019100D01*
X003200Y018942D02*
X003520Y018942D01*
X003520Y018783D02*
X003200Y018783D01*
X003200Y018625D02*
X003520Y018625D01*
X003520Y018466D02*
X003200Y018466D01*
X003200Y018308D02*
X003520Y018308D01*
X003520Y018149D02*
X003200Y018149D01*
X003200Y017991D02*
X003520Y017991D01*
X003520Y017832D02*
X003200Y017832D01*
X003200Y017674D02*
X003527Y017674D01*
X003623Y017515D02*
X003200Y017515D01*
X003200Y017356D02*
X003781Y017356D01*
X003940Y017198D02*
X003200Y017198D01*
X003200Y017039D02*
X004098Y017039D01*
X004257Y016881D02*
X003200Y016881D01*
X003200Y016722D02*
X004416Y016722D01*
X004574Y016564D02*
X003200Y016564D01*
X003200Y016405D02*
X004733Y016405D01*
X004891Y016247D02*
X003200Y016247D01*
X003200Y016088D02*
X005050Y016088D01*
X005208Y015930D02*
X003200Y015930D01*
X003200Y015771D02*
X005345Y015771D01*
X005345Y015612D02*
X003200Y015612D01*
X003200Y015454D02*
X005345Y015454D01*
X005345Y015295D02*
X003200Y015295D01*
X003200Y015137D02*
X005345Y015137D01*
X005345Y014978D02*
X003200Y014978D01*
X003200Y014820D02*
X005345Y014820D01*
X005345Y014661D02*
X003188Y014661D01*
X003086Y014503D02*
X005345Y014503D01*
X005345Y014344D02*
X002927Y014344D01*
X002769Y014186D02*
X005345Y014186D01*
X005345Y014027D02*
X002610Y014027D01*
X002452Y013868D02*
X005345Y013868D01*
X005345Y013710D02*
X002293Y013710D01*
X002278Y013551D02*
X005345Y013551D01*
X005345Y013393D02*
X002405Y013393D01*
X002405Y013234D02*
X005345Y013234D01*
X005345Y013076D02*
X002405Y013076D01*
X002405Y012917D02*
X005345Y012917D01*
X005345Y012759D02*
X002405Y012759D01*
X002405Y012600D02*
X005345Y012600D01*
X005345Y012442D02*
X002133Y012442D01*
X002293Y012283D02*
X005345Y012283D01*
X005345Y012124D02*
X002359Y012124D01*
X002365Y011966D02*
X005345Y011966D01*
X005305Y011807D02*
X005278Y011807D01*
X005292Y011061D02*
X005202Y010972D01*
X005005Y010890D01*
X004791Y010890D01*
X004550Y011015D02*
X000360Y011015D01*
X000360Y011173D02*
X004421Y011173D01*
X004360Y011332D02*
X000360Y011332D01*
X000360Y011490D02*
X004360Y011490D01*
X004408Y011649D02*
X002215Y011649D01*
X002324Y011807D02*
X004518Y011807D01*
X005245Y011015D02*
X005338Y011015D01*
X005381Y010972D02*
X005578Y010890D01*
X005792Y010890D01*
X005990Y010972D01*
X006079Y011061D01*
X006168Y010972D01*
X006366Y010890D01*
X006580Y010890D01*
X006777Y010972D01*
X006866Y011061D01*
X006956Y010972D01*
X007153Y010890D01*
X007367Y010890D01*
X007565Y010972D01*
X007654Y011061D01*
X007743Y010972D01*
X007941Y010890D01*
X008154Y010890D01*
X008352Y010972D01*
X008441Y011061D01*
X008530Y010972D01*
X008728Y010890D01*
X008942Y010890D01*
X009139Y010972D01*
X009229Y011061D01*
X009318Y010972D01*
X009515Y010890D01*
X009729Y010890D01*
X009927Y010972D01*
X010016Y011061D01*
X010105Y010972D01*
X010303Y010890D01*
X010517Y010890D01*
X010714Y010972D01*
X010803Y011061D01*
X010857Y011007D01*
X010857Y010989D01*
X010857Y010854D01*
X010909Y010729D01*
X011072Y010566D01*
X011168Y010470D01*
X011293Y010418D01*
X011720Y010418D01*
X012520Y009617D01*
X012520Y006752D01*
X012360Y006592D01*
X012270Y006375D01*
X012270Y006141D01*
X012360Y005924D01*
X012526Y005758D01*
X012743Y005668D01*
X012978Y005668D01*
X013195Y005758D01*
X013360Y005924D01*
X013526Y005758D01*
X013743Y005668D01*
X013978Y005668D01*
X014195Y005758D01*
X014361Y005924D01*
X014450Y006141D01*
X014450Y006375D01*
X014361Y006592D01*
X014200Y006752D01*
X014200Y012326D01*
X014149Y012451D01*
X014053Y012546D01*
X013950Y012649D01*
X013950Y012875D01*
X013861Y013092D01*
X013695Y013258D01*
X013478Y013348D01*
X013243Y013348D01*
X013026Y013258D01*
X012860Y013092D01*
X012770Y012875D01*
X012770Y012641D01*
X012860Y012424D01*
X013026Y012258D01*
X013243Y012168D01*
X013470Y012168D01*
X013520Y012117D01*
X013520Y006752D01*
X013360Y006592D01*
X013200Y006752D01*
X013200Y009690D01*
X013200Y009826D01*
X013149Y009951D01*
X012175Y010924D01*
X012289Y010972D01*
X012440Y011123D01*
X012522Y011320D01*
X012522Y011534D01*
X012440Y011732D01*
X012289Y011883D01*
X012091Y011965D01*
X011878Y011965D01*
X011680Y011883D01*
X011591Y011794D01*
X011502Y011883D01*
X011304Y011965D01*
X011090Y011965D01*
X010893Y011883D01*
X010803Y011794D01*
X010714Y011883D01*
X010517Y011965D01*
X010303Y011965D01*
X010105Y011883D01*
X010016Y011794D01*
X009927Y011883D01*
X009729Y011965D01*
X009515Y011965D01*
X009318Y011883D01*
X009229Y011794D01*
X009139Y011883D01*
X008942Y011965D01*
X008728Y011965D01*
X008530Y011883D01*
X008441Y011794D01*
X008352Y011883D01*
X008154Y011965D01*
X007941Y011965D01*
X007743Y011883D01*
X007654Y011794D01*
X007565Y011883D01*
X007367Y011965D01*
X007153Y011965D01*
X006956Y011883D01*
X006866Y011794D01*
X006777Y011883D01*
X006580Y011965D01*
X006366Y011965D01*
X006168Y011883D01*
X006079Y011794D01*
X006025Y011848D01*
X006025Y016001D01*
X005973Y016126D01*
X005878Y016221D01*
X004200Y017899D01*
X004200Y020617D01*
X004501Y020918D01*
X006559Y020918D01*
X006555Y020909D01*
X006391Y020626D01*
X006366Y020626D01*
X006168Y020544D01*
X006079Y020455D01*
X005990Y020544D01*
X005792Y020626D01*
X005578Y020626D01*
X005381Y020544D01*
X005263Y020427D01*
X005180Y020511D01*
X004997Y020586D01*
X004898Y020586D01*
X004898Y020089D01*
X004898Y020089D01*
X004898Y020586D01*
X004799Y020586D01*
X004616Y020511D01*
X004476Y020371D01*
X004400Y020188D01*
X004400Y020089D01*
X004897Y020089D01*
X004897Y020089D01*
X004400Y020089D01*
X004400Y019990D01*
X004476Y019807D01*
X004616Y019667D01*
X004799Y019591D01*
X004898Y019591D01*
X004997Y019591D01*
X005180Y019667D01*
X005263Y019751D01*
X005381Y019633D01*
X005578Y019551D01*
X005792Y019551D01*
X005990Y019633D01*
X006079Y019722D01*
X006168Y019633D01*
X006366Y019551D01*
X006580Y019551D01*
X006777Y019633D01*
X006866Y019722D01*
X006956Y019633D01*
X007039Y019599D01*
X007067Y019570D01*
X007572Y019066D01*
X007668Y018970D01*
X007793Y018918D01*
X012293Y018918D01*
X012793Y018918D01*
X012928Y018918D01*
X013053Y018970D01*
X013553Y019470D01*
X013649Y019566D01*
X013700Y019690D01*
X013700Y020690D01*
X013700Y020826D01*
X013649Y020951D01*
X013053Y021546D01*
X012700Y021899D01*
X012700Y023326D01*
X012649Y023451D01*
X012553Y023546D01*
X012053Y024046D01*
X011928Y024098D01*
X011793Y024098D01*
X011293Y024098D01*
X010128Y024098D01*
X009928Y024098D01*
X009793Y024098D01*
X009668Y024046D01*
X009168Y023546D01*
X009117Y023496D01*
X008852Y023496D01*
X008760Y023404D01*
X008669Y023496D01*
X007852Y023496D01*
X007760Y023404D01*
X007669Y023496D01*
X006852Y023496D01*
X006723Y023367D01*
X006723Y023298D01*
X006737Y023381D02*
X000360Y023381D01*
X000360Y023223D02*
X004844Y023223D01*
X004686Y023064D02*
X000360Y023064D01*
X000360Y022905D02*
X004527Y022905D01*
X004368Y022747D02*
X000360Y022747D01*
X000360Y022588D02*
X004210Y022588D01*
X004051Y022430D02*
X000360Y022430D01*
X000360Y022271D02*
X003893Y022271D01*
X003734Y022113D02*
X000360Y022113D01*
X000360Y021954D02*
X003576Y021954D01*
X003417Y021796D02*
X000360Y021796D01*
X000360Y021637D02*
X003259Y021637D01*
X003100Y021479D02*
X000360Y021479D01*
X000360Y021320D02*
X002942Y021320D01*
X002783Y021161D02*
X000360Y021161D01*
X000360Y021003D02*
X002624Y021003D01*
X002668Y021046D02*
X002668Y021046D01*
X002528Y020844D02*
X000360Y020844D01*
X000360Y020686D02*
X002520Y020686D01*
X002520Y020527D02*
X002128Y020527D01*
X002373Y020369D02*
X002520Y020369D01*
X002520Y020210D02*
X002471Y020210D01*
X002510Y020052D02*
X002520Y020052D01*
X002507Y019893D02*
X002520Y019893D01*
X002520Y019735D02*
X002442Y019735D01*
X002520Y019576D02*
X002302Y019576D01*
X002381Y019417D02*
X002520Y019417D01*
X002520Y019259D02*
X002494Y019259D01*
X001630Y020052D02*
X001590Y020052D01*
X001590Y020028D02*
X001590Y020548D01*
X001143Y020548D01*
X000945Y020466D01*
X000793Y020314D01*
X000710Y020116D01*
X000710Y020028D01*
X001590Y020028D01*
X001590Y020210D02*
X001630Y020210D01*
X001630Y020369D02*
X001590Y020369D01*
X001590Y020527D02*
X001630Y020527D01*
X001093Y020527D02*
X000360Y020527D01*
X000360Y020369D02*
X000847Y020369D01*
X000750Y020210D02*
X000360Y020210D01*
X000360Y020052D02*
X000710Y020052D01*
X000714Y019893D02*
X000360Y019893D01*
X000360Y019735D02*
X000779Y019735D01*
X000919Y019576D02*
X000360Y019576D01*
X000360Y019417D02*
X000840Y019417D01*
X000727Y019259D02*
X000360Y019259D01*
X000360Y019100D02*
X000670Y019100D01*
X000670Y018942D02*
X000360Y018942D01*
X000360Y018783D02*
X000716Y018783D01*
X000814Y018625D02*
X000360Y018625D01*
X000360Y018466D02*
X000888Y018466D01*
X000747Y018308D02*
X000360Y018308D01*
X000360Y018149D02*
X000681Y018149D01*
X000670Y017991D02*
X000360Y017991D01*
X000360Y017832D02*
X000696Y017832D01*
X000765Y017674D02*
X000360Y017674D01*
X000360Y017515D02*
X000925Y017515D01*
X000360Y017356D02*
X002520Y017356D01*
X002520Y017198D02*
X000360Y017198D01*
X000360Y017039D02*
X002520Y017039D01*
X002520Y016881D02*
X000360Y016881D01*
X000360Y016722D02*
X002520Y016722D01*
X002520Y016564D02*
X000360Y016564D01*
X000360Y016405D02*
X002520Y016405D01*
X002520Y016247D02*
X000360Y016247D01*
X000360Y016088D02*
X002520Y016088D01*
X002520Y015930D02*
X000360Y015930D01*
X000360Y015771D02*
X002520Y015771D01*
X002520Y015612D02*
X000360Y015612D01*
X000360Y015454D02*
X002520Y015454D01*
X002520Y015295D02*
X000360Y015295D01*
X000360Y015137D02*
X002520Y015137D01*
X002520Y014978D02*
X000360Y014978D01*
X000360Y014820D02*
X002441Y014820D01*
X002283Y014661D02*
X000360Y014661D01*
X000360Y014503D02*
X002124Y014503D01*
X001966Y014344D02*
X000360Y014344D01*
X000360Y014186D02*
X001807Y014186D01*
X001649Y014027D02*
X000360Y014027D01*
X000360Y013868D02*
X001538Y013868D01*
X001520Y013710D02*
X000360Y013710D01*
X000360Y013551D02*
X001443Y013551D01*
X001315Y013393D02*
X000360Y013393D01*
X000360Y013234D02*
X001315Y013234D01*
X001315Y013076D02*
X000360Y013076D01*
X000360Y012917D02*
X001315Y012917D01*
X001315Y012759D02*
X000360Y012759D01*
X000360Y012600D02*
X001315Y012600D01*
X001587Y012442D02*
X000360Y012442D01*
X000360Y012283D02*
X001428Y012283D01*
X001362Y012124D02*
X000360Y012124D01*
X000360Y011966D02*
X001355Y011966D01*
X001397Y011807D02*
X000360Y011807D01*
X000360Y011649D02*
X001506Y011649D01*
X001860Y011649D02*
X001861Y011649D01*
X001860Y011807D02*
X001861Y011807D01*
X001860Y011966D02*
X001861Y011966D01*
X000360Y010856D02*
X010857Y010856D01*
X010850Y011015D02*
X010757Y011015D01*
X010940Y010698D02*
X000360Y010698D01*
X000360Y010539D02*
X011099Y010539D01*
X011757Y010381D02*
X000360Y010381D01*
X004238Y005466D02*
X004430Y005466D01*
X004430Y005307D02*
X004397Y005307D01*
X001519Y003880D02*
X000360Y003880D01*
X000360Y003722D02*
X001361Y003722D01*
X001258Y003563D02*
X000360Y003563D01*
X000360Y003405D02*
X001193Y003405D01*
X005381Y010972D02*
X005292Y011061D01*
X006033Y011015D02*
X006125Y011015D01*
X006093Y011807D02*
X006065Y011807D01*
X006025Y011966D02*
X013520Y011966D01*
X013520Y011807D02*
X012365Y011807D01*
X012474Y011649D02*
X013520Y011649D01*
X013520Y011490D02*
X012522Y011490D01*
X012522Y011332D02*
X013520Y011332D01*
X013520Y011173D02*
X012461Y011173D01*
X012332Y011015D02*
X013520Y011015D01*
X013520Y010856D02*
X012243Y010856D01*
X012402Y010698D02*
X013520Y010698D01*
X013520Y010539D02*
X012560Y010539D01*
X012719Y010381D02*
X013520Y010381D01*
X013520Y010222D02*
X012877Y010222D01*
X013036Y010063D02*
X013520Y010063D01*
X013520Y009905D02*
X013168Y009905D01*
X013200Y009746D02*
X013520Y009746D01*
X013520Y009588D02*
X013200Y009588D01*
X013200Y009429D02*
X013520Y009429D01*
X013520Y009271D02*
X013200Y009271D01*
X013200Y009112D02*
X013520Y009112D01*
X013520Y008954D02*
X013200Y008954D01*
X013200Y008795D02*
X013520Y008795D01*
X013520Y008637D02*
X013200Y008637D01*
X013200Y008478D02*
X013520Y008478D01*
X013520Y008319D02*
X013200Y008319D01*
X013200Y008161D02*
X013520Y008161D01*
X013520Y008002D02*
X013200Y008002D01*
X013200Y007844D02*
X013520Y007844D01*
X013520Y007685D02*
X013200Y007685D01*
X013200Y007527D02*
X013520Y007527D01*
X013520Y007368D02*
X013200Y007368D01*
X013200Y007210D02*
X013520Y007210D01*
X013520Y007051D02*
X013200Y007051D01*
X013200Y006893D02*
X013520Y006893D01*
X013502Y006734D02*
X013219Y006734D01*
X013219Y005783D02*
X013501Y005783D01*
X014219Y005783D02*
X015180Y005783D01*
X015180Y005941D02*
X014368Y005941D01*
X014434Y006100D02*
X015180Y006100D01*
X015180Y006258D02*
X014450Y006258D01*
X014433Y006417D02*
X015180Y006417D01*
X015180Y006575D02*
X014368Y006575D01*
X014219Y006734D02*
X015180Y006734D01*
X015180Y006893D02*
X014200Y006893D01*
X014200Y007051D02*
X015180Y007051D01*
X015180Y007210D02*
X014200Y007210D01*
X014200Y007368D02*
X015180Y007368D01*
X015180Y007527D02*
X014200Y007527D01*
X014200Y007685D02*
X015180Y007685D01*
X015180Y007844D02*
X014200Y007844D01*
X014200Y008002D02*
X015180Y008002D01*
X015180Y008161D02*
X014200Y008161D01*
X014200Y008319D02*
X015180Y008319D01*
X015180Y008478D02*
X014200Y008478D01*
X014200Y008637D02*
X015180Y008637D01*
X015180Y008795D02*
X014200Y008795D01*
X014200Y008954D02*
X015180Y008954D01*
X015180Y009112D02*
X014200Y009112D01*
X014200Y009271D02*
X015180Y009271D01*
X015180Y009429D02*
X014200Y009429D01*
X014200Y009588D02*
X015180Y009588D01*
X015180Y009746D02*
X014200Y009746D01*
X014200Y009905D02*
X015180Y009905D01*
X015180Y010063D02*
X014200Y010063D01*
X014200Y010222D02*
X015180Y010222D01*
X015180Y010381D02*
X014200Y010381D01*
X014200Y010539D02*
X015180Y010539D01*
X015180Y010698D02*
X014200Y010698D01*
X014200Y010856D02*
X015180Y010856D01*
X015180Y011015D02*
X014200Y011015D01*
X014200Y011173D02*
X015180Y011173D01*
X015180Y011332D02*
X014200Y011332D01*
X014200Y011490D02*
X015180Y011490D01*
X015180Y011649D02*
X014200Y011649D01*
X014200Y011807D02*
X015180Y011807D01*
X015180Y011966D02*
X014200Y011966D01*
X014200Y012124D02*
X015180Y012124D01*
X015180Y012283D02*
X014200Y012283D01*
X014152Y012442D02*
X015180Y012442D01*
X015180Y012600D02*
X013999Y012600D01*
X013950Y012759D02*
X015180Y012759D01*
X015180Y012917D02*
X013933Y012917D01*
X013867Y013076D02*
X015180Y013076D01*
X015180Y013234D02*
X013719Y013234D01*
X013513Y012124D02*
X006025Y012124D01*
X006025Y012283D02*
X013001Y012283D01*
X012853Y012442D02*
X006025Y012442D01*
X006025Y012600D02*
X012787Y012600D01*
X012770Y012759D02*
X006025Y012759D01*
X006025Y012917D02*
X012788Y012917D01*
X012853Y013076D02*
X006025Y013076D01*
X006025Y013234D02*
X013002Y013234D01*
X013243Y015168D02*
X013026Y015258D01*
X012860Y015424D01*
X012770Y015641D01*
X012770Y015875D01*
X012860Y016092D01*
X013026Y016258D01*
X013243Y016348D01*
X013478Y016348D01*
X013695Y016258D01*
X013861Y016092D01*
X013950Y015875D01*
X013950Y015641D01*
X013861Y015424D01*
X013695Y015258D01*
X013478Y015168D01*
X013243Y015168D01*
X012989Y015295D02*
X006025Y015295D01*
X006025Y015137D02*
X015180Y015137D01*
X015180Y015295D02*
X013732Y015295D01*
X013873Y015454D02*
X015180Y015454D01*
X015180Y015612D02*
X013939Y015612D01*
X013950Y015771D02*
X015180Y015771D01*
X015180Y015930D02*
X013928Y015930D01*
X013862Y016088D02*
X015180Y016088D01*
X015180Y016247D02*
X013706Y016247D01*
X013015Y016247D02*
X005853Y016247D01*
X005989Y016088D02*
X012859Y016088D01*
X012793Y015930D02*
X006025Y015930D01*
X006025Y015771D02*
X012770Y015771D01*
X012782Y015612D02*
X006025Y015612D01*
X006025Y015454D02*
X012848Y015454D01*
X012985Y018942D02*
X015180Y018942D01*
X015180Y019100D02*
X013184Y019100D01*
X013342Y019259D02*
X015180Y019259D01*
X015180Y019417D02*
X013501Y019417D01*
X013653Y019576D02*
X015180Y019576D01*
X015180Y019735D02*
X013700Y019735D01*
X013700Y019893D02*
X015180Y019893D01*
X015180Y020052D02*
X013700Y020052D01*
X013700Y020210D02*
X015180Y020210D01*
X015180Y020369D02*
X013700Y020369D01*
X013700Y020527D02*
X015180Y020527D01*
X015180Y020686D02*
X013700Y020686D01*
X013693Y020844D02*
X015180Y020844D01*
X015180Y021003D02*
X013596Y021003D01*
X013438Y021161D02*
X015180Y021161D01*
X015180Y021320D02*
X013279Y021320D01*
X013121Y021479D02*
X015180Y021479D01*
X015180Y021637D02*
X012962Y021637D01*
X013053Y021546D02*
X013053Y021546D01*
X012804Y021796D02*
X015180Y021796D01*
X015180Y021954D02*
X012700Y021954D01*
X012700Y022113D02*
X015180Y022113D01*
X015180Y022271D02*
X012700Y022271D01*
X012700Y022430D02*
X015180Y022430D01*
X015180Y022588D02*
X012700Y022588D01*
X012700Y022747D02*
X015180Y022747D01*
X015180Y022905D02*
X012700Y022905D01*
X012700Y023064D02*
X015180Y023064D01*
X015180Y023223D02*
X012700Y023223D01*
X012678Y023381D02*
X015180Y023381D01*
X015180Y023540D02*
X012560Y023540D01*
X012553Y023546D02*
X012553Y023546D01*
X012401Y023698D02*
X015180Y023698D01*
X015180Y023857D02*
X012243Y023857D01*
X012084Y024015D02*
X015180Y024015D01*
X015180Y024174D02*
X000360Y024174D01*
X000360Y024015D02*
X009637Y024015D01*
X009478Y023857D02*
X000360Y023857D01*
X000360Y023698D02*
X009320Y023698D01*
X009161Y023540D02*
X000360Y023540D01*
X002456Y017674D02*
X002520Y017674D01*
X002520Y017515D02*
X002295Y017515D01*
X004200Y017991D02*
X015180Y017991D01*
X015180Y018149D02*
X004200Y018149D01*
X004200Y018308D02*
X015180Y018308D01*
X015180Y018466D02*
X004200Y018466D01*
X004200Y018625D02*
X015180Y018625D01*
X015180Y018783D02*
X004200Y018783D01*
X004200Y018942D02*
X007736Y018942D01*
X007537Y019100D02*
X004200Y019100D01*
X004200Y019259D02*
X007379Y019259D01*
X007220Y019417D02*
X004200Y019417D01*
X004200Y019576D02*
X005519Y019576D01*
X005279Y019735D02*
X005247Y019735D01*
X004898Y019735D02*
X004898Y019735D01*
X004898Y019591D02*
X004898Y020088D01*
X004898Y020088D01*
X004898Y019591D01*
X004898Y019893D02*
X004898Y019893D01*
X004898Y020052D02*
X004898Y020052D01*
X004898Y020210D02*
X004898Y020210D01*
X004898Y020369D02*
X004898Y020369D01*
X004898Y020527D02*
X004898Y020527D01*
X005139Y020527D02*
X005364Y020527D01*
X006007Y020527D02*
X006151Y020527D01*
X006426Y020686D02*
X004269Y020686D01*
X004200Y020527D02*
X004657Y020527D01*
X004475Y020369D02*
X004200Y020369D01*
X004200Y020210D02*
X004410Y020210D01*
X004400Y020052D02*
X004200Y020052D01*
X004200Y019893D02*
X004440Y019893D01*
X004549Y019735D02*
X004200Y019735D01*
X004428Y020844D02*
X006518Y020844D01*
X006639Y019576D02*
X007062Y019576D01*
X006306Y019576D02*
X005852Y019576D01*
X004584Y017515D02*
X015180Y017515D01*
X015180Y017674D02*
X004426Y017674D01*
X004267Y017832D02*
X015180Y017832D01*
X015180Y017356D02*
X004743Y017356D01*
X004901Y017198D02*
X015180Y017198D01*
X015180Y017039D02*
X005060Y017039D01*
X005219Y016881D02*
X015180Y016881D01*
X015180Y016722D02*
X005377Y016722D01*
X005536Y016564D02*
X015180Y016564D01*
X015180Y016405D02*
X005694Y016405D01*
X006025Y014978D02*
X015180Y014978D01*
X015180Y014820D02*
X006025Y014820D01*
X006025Y014661D02*
X015180Y014661D01*
X015180Y014503D02*
X006025Y014503D01*
X006025Y014344D02*
X015180Y014344D01*
X015180Y014186D02*
X006025Y014186D01*
X006025Y014027D02*
X015180Y014027D01*
X015180Y013868D02*
X006025Y013868D01*
X006025Y013710D02*
X015180Y013710D01*
X015180Y013551D02*
X006025Y013551D01*
X006025Y013393D02*
X015180Y013393D01*
X012520Y009588D02*
X011860Y009588D01*
X011860Y009746D02*
X012391Y009746D01*
X012233Y009905D02*
X011860Y009905D01*
X011860Y010063D02*
X012074Y010063D01*
X011916Y010222D02*
X011860Y010222D01*
X011860Y009429D02*
X012520Y009429D01*
X012520Y009271D02*
X011860Y009271D01*
X011860Y009112D02*
X012520Y009112D01*
X012520Y008954D02*
X011860Y008954D01*
X011860Y008795D02*
X012520Y008795D01*
X012520Y008637D02*
X011860Y008637D01*
X011860Y008478D02*
X012520Y008478D01*
X012520Y008319D02*
X011860Y008319D01*
X011860Y008161D02*
X012520Y008161D01*
X012520Y008002D02*
X011860Y008002D01*
X011860Y007844D02*
X012520Y007844D01*
X012520Y007685D02*
X011860Y007685D01*
X011860Y007527D02*
X012520Y007527D01*
X012520Y007368D02*
X011860Y007368D01*
X011860Y007210D02*
X012520Y007210D01*
X012520Y007051D02*
X011860Y007051D01*
X011860Y006893D02*
X012520Y006893D01*
X012502Y006734D02*
X011860Y006734D01*
X011860Y006575D02*
X012353Y006575D01*
X012288Y006417D02*
X011860Y006417D01*
X011860Y006258D02*
X012270Y006258D01*
X012287Y006100D02*
X011860Y006100D01*
X011860Y005941D02*
X012353Y005941D01*
X012501Y005783D02*
X011860Y005783D01*
X011860Y005624D02*
X015180Y005624D01*
X015180Y005466D02*
X011860Y005466D01*
X011860Y005307D02*
X015180Y005307D01*
X015180Y005149D02*
X011860Y005149D01*
X011860Y004990D02*
X015180Y004990D01*
X015180Y004831D02*
X011860Y004831D01*
X011860Y004673D02*
X015180Y004673D01*
X015180Y004514D02*
X011860Y004514D01*
X011860Y004356D02*
X015180Y004356D01*
X015180Y004197D02*
X011860Y004197D01*
X011860Y004039D02*
X015180Y004039D01*
X015180Y003880D02*
X011860Y003880D01*
X011860Y003722D02*
X015180Y003722D01*
X015180Y003563D02*
X011860Y003563D01*
X011860Y003405D02*
X015180Y003405D01*
X015180Y003246D02*
X011860Y003246D01*
X011860Y003088D02*
X015180Y003088D01*
X015180Y002929D02*
X011860Y002929D01*
X011860Y002770D02*
X015180Y002770D01*
X015180Y002612D02*
X011860Y002612D01*
X011860Y002453D02*
X015180Y002453D01*
X015180Y002295D02*
X011860Y002295D01*
X011860Y002136D02*
X015180Y002136D01*
X015180Y001978D02*
X011860Y001978D01*
X010062Y011015D02*
X009970Y011015D01*
X010002Y011807D02*
X010030Y011807D01*
X010790Y011807D02*
X010817Y011807D01*
X011577Y011807D02*
X011604Y011807D01*
X009242Y011807D02*
X009215Y011807D01*
X009182Y011015D02*
X009275Y011015D01*
X008487Y011015D02*
X008395Y011015D01*
X008428Y011807D02*
X008455Y011807D01*
X007667Y011807D02*
X007640Y011807D01*
X007607Y011015D02*
X007700Y011015D01*
X006913Y011015D02*
X006820Y011015D01*
X006853Y011807D02*
X006880Y011807D01*
M02*
