G75*
G70*
%OFA0B0*%
%FSLAX24Y24*%
%IPPOS*%
%LPD*%
%AMOC8*
5,1,8,0,0,1.08239X$1,22.5*
%
%ADD10C,0.0060*%
%ADD11C,0.0160*%
%ADD12C,0.0000*%
%ADD13C,0.0010*%
%ADD14C,0.0080*%
%ADD15C,0.0050*%
%ADD16C,0.0040*%
D10*
X006390Y002895D02*
X006497Y002788D01*
X006711Y002788D01*
X006817Y002895D01*
X007035Y002895D02*
X007035Y003429D01*
X006817Y003322D02*
X006711Y003429D01*
X006497Y003429D01*
X006390Y003322D01*
X006390Y002895D01*
X007035Y002895D02*
X007142Y002788D01*
X007355Y002788D01*
X007462Y002895D01*
X007462Y003429D01*
X007680Y003429D02*
X008107Y003429D01*
X007893Y003429D02*
X007893Y002788D01*
X008969Y002895D02*
X009075Y002788D01*
X009289Y002788D01*
X009396Y002895D01*
X009396Y003322D01*
X009289Y003429D01*
X009075Y003429D01*
X008969Y003322D01*
X008969Y002895D01*
X009613Y002895D02*
X009720Y002788D01*
X009933Y002788D01*
X010040Y002895D01*
X010040Y003429D01*
X010258Y003429D02*
X010685Y003429D01*
X010471Y003429D02*
X010471Y002788D01*
X009613Y002895D02*
X009613Y003429D01*
X012360Y006258D02*
X012362Y006321D01*
X012368Y006383D01*
X012378Y006445D01*
X012391Y006507D01*
X012409Y006567D01*
X012430Y006626D01*
X012455Y006684D01*
X012484Y006740D01*
X012516Y006794D01*
X012551Y006846D01*
X012589Y006895D01*
X012631Y006943D01*
X012675Y006987D01*
X012723Y007029D01*
X012772Y007067D01*
X012824Y007102D01*
X012878Y007134D01*
X012934Y007163D01*
X012992Y007188D01*
X013051Y007209D01*
X013111Y007227D01*
X013173Y007240D01*
X013235Y007250D01*
X013297Y007256D01*
X013360Y007258D01*
X013423Y007256D01*
X013485Y007250D01*
X013547Y007240D01*
X013609Y007227D01*
X013669Y007209D01*
X013728Y007188D01*
X013786Y007163D01*
X013842Y007134D01*
X013896Y007102D01*
X013948Y007067D01*
X013997Y007029D01*
X014045Y006987D01*
X014089Y006943D01*
X014131Y006895D01*
X014169Y006846D01*
X014204Y006794D01*
X014236Y006740D01*
X014265Y006684D01*
X014290Y006626D01*
X014311Y006567D01*
X014329Y006507D01*
X014342Y006445D01*
X014352Y006383D01*
X014358Y006321D01*
X014360Y006258D01*
X014358Y006195D01*
X014352Y006133D01*
X014342Y006071D01*
X014329Y006009D01*
X014311Y005949D01*
X014290Y005890D01*
X014265Y005832D01*
X014236Y005776D01*
X014204Y005722D01*
X014169Y005670D01*
X014131Y005621D01*
X014089Y005573D01*
X014045Y005529D01*
X013997Y005487D01*
X013948Y005449D01*
X013896Y005414D01*
X013842Y005382D01*
X013786Y005353D01*
X013728Y005328D01*
X013669Y005307D01*
X013609Y005289D01*
X013547Y005276D01*
X013485Y005266D01*
X013423Y005260D01*
X013360Y005258D01*
X013297Y005260D01*
X013235Y005266D01*
X013173Y005276D01*
X013111Y005289D01*
X013051Y005307D01*
X012992Y005328D01*
X012934Y005353D01*
X012878Y005382D01*
X012824Y005414D01*
X012772Y005449D01*
X012723Y005487D01*
X012675Y005529D01*
X012631Y005573D01*
X012589Y005621D01*
X012551Y005670D01*
X012516Y005722D01*
X012484Y005776D01*
X012455Y005832D01*
X012430Y005890D01*
X012409Y005949D01*
X012391Y006009D01*
X012378Y006071D01*
X012368Y006133D01*
X012362Y006195D01*
X012360Y006258D01*
X001860Y017508D02*
X002110Y017758D01*
X002110Y018258D01*
X001860Y018508D01*
X001360Y018508D01*
X001110Y018258D01*
X001110Y017758D01*
X001360Y017508D01*
X001860Y017508D01*
X001860Y018508D02*
X002110Y018758D01*
X002110Y019258D01*
X001860Y019508D01*
X001360Y019508D01*
X001110Y019258D01*
X001110Y018758D01*
X001360Y018508D01*
X001360Y019508D02*
X001110Y019758D01*
X001110Y020258D01*
X001360Y020508D01*
X001860Y020508D01*
X002110Y020258D01*
X002110Y019758D01*
X001860Y019508D01*
D11*
X006860Y007258D02*
X009860Y004758D01*
X009860Y007258D02*
X006860Y004758D01*
D12*
X000110Y001758D02*
X000110Y024508D01*
X015360Y024508D01*
X015360Y001758D01*
X011610Y001758D01*
X011610Y010008D01*
X004610Y010008D01*
X004610Y001758D01*
X000110Y001758D01*
D13*
X000640Y002513D02*
X000615Y002538D01*
X000640Y002513D02*
X000666Y002513D01*
X000691Y002538D01*
X000691Y002663D01*
X000666Y002663D02*
X000716Y002663D01*
X000763Y002613D02*
X000813Y002663D01*
X000813Y002513D01*
X000763Y002513D02*
X000863Y002513D01*
X002340Y008263D02*
X002315Y008288D01*
X002315Y008388D01*
X002340Y008413D01*
X002391Y008413D01*
X002416Y008388D01*
X002463Y008363D02*
X002513Y008413D01*
X002513Y008263D01*
X002463Y008263D02*
X002563Y008263D01*
X002416Y008288D02*
X002391Y008263D01*
X002340Y008263D01*
X001180Y012213D02*
X001080Y012213D01*
X001055Y012238D01*
X001055Y012288D01*
X001080Y012313D01*
X001080Y012360D02*
X001055Y012385D01*
X001055Y012435D01*
X001080Y012461D01*
X001105Y012461D01*
X001205Y012360D01*
X001205Y012461D01*
X001180Y012313D02*
X001205Y012288D01*
X001205Y012238D01*
X001180Y012213D01*
X005115Y018821D02*
X005240Y018821D01*
X005265Y018846D01*
X005265Y018896D01*
X005240Y018921D01*
X005115Y018921D01*
X005140Y018968D02*
X005115Y018993D01*
X005115Y019044D01*
X005140Y019069D01*
X005165Y019116D02*
X005115Y019166D01*
X005265Y019166D01*
X005265Y019116D02*
X005265Y019216D01*
X005240Y019069D02*
X005215Y019069D01*
X005190Y019044D01*
X005190Y018993D01*
X005165Y018968D01*
X005140Y018968D01*
X005090Y019019D02*
X005290Y019019D01*
X005265Y019044D02*
X005240Y019069D01*
X005265Y019044D02*
X005265Y018993D01*
X005240Y018968D01*
X012328Y005478D02*
X012400Y005532D01*
X012399Y005531D02*
X012442Y005478D01*
X012487Y005427D01*
X012536Y005379D01*
X012587Y005334D01*
X012641Y005291D01*
X012697Y005252D01*
X012755Y005216D01*
X012815Y005183D01*
X012876Y005154D01*
X012940Y005129D01*
X013004Y005107D01*
X013070Y005088D01*
X013137Y005074D01*
X013204Y005063D01*
X013272Y005056D01*
X013340Y005053D01*
X013409Y005054D01*
X013477Y005059D01*
X013545Y005067D01*
X013612Y005080D01*
X013678Y005096D01*
X013743Y005116D01*
X013808Y005139D01*
X013870Y005166D01*
X013931Y005197D01*
X013990Y005231D01*
X014048Y005268D01*
X014103Y005309D01*
X014155Y005353D01*
X014205Y005399D01*
X014252Y005448D01*
X014297Y005500D01*
X014338Y005554D01*
X014377Y005611D01*
X014412Y005670D01*
X014443Y005730D01*
X014471Y005792D01*
X014496Y005856D01*
X014517Y005921D01*
X014534Y005987D01*
X014548Y006054D01*
X014557Y006122D01*
X014563Y006190D01*
X014565Y006258D01*
X014563Y006326D01*
X014557Y006394D01*
X014548Y006462D01*
X014534Y006529D01*
X014517Y006595D01*
X014496Y006660D01*
X014471Y006724D01*
X014443Y006786D01*
X014412Y006846D01*
X014377Y006905D01*
X014338Y006962D01*
X014297Y007016D01*
X014252Y007068D01*
X014205Y007117D01*
X014155Y007163D01*
X014103Y007207D01*
X014048Y007248D01*
X013990Y007285D01*
X013931Y007319D01*
X013870Y007350D01*
X013808Y007377D01*
X013743Y007400D01*
X013678Y007420D01*
X013612Y007436D01*
X013545Y007449D01*
X013477Y007457D01*
X013409Y007462D01*
X013340Y007463D01*
X013272Y007460D01*
X013204Y007453D01*
X013137Y007442D01*
X013070Y007428D01*
X013004Y007409D01*
X012940Y007387D01*
X012876Y007362D01*
X012815Y007333D01*
X012755Y007300D01*
X012697Y007264D01*
X012641Y007225D01*
X012587Y007182D01*
X012536Y007137D01*
X012487Y007089D01*
X012442Y007038D01*
X012399Y006985D01*
X012328Y007038D01*
X012327Y007039D01*
X012371Y007094D01*
X012419Y007147D01*
X012469Y007198D01*
X012522Y007245D01*
X012577Y007289D01*
X012635Y007331D01*
X012695Y007369D01*
X012756Y007404D01*
X012820Y007435D01*
X012885Y007463D01*
X012952Y007487D01*
X013020Y007508D01*
X013089Y007524D01*
X013159Y007537D01*
X013229Y007546D01*
X013300Y007552D01*
X013371Y007553D01*
X013442Y007550D01*
X013513Y007544D01*
X013583Y007534D01*
X013652Y007520D01*
X013721Y007502D01*
X013789Y007480D01*
X013855Y007455D01*
X013920Y007426D01*
X013983Y007393D01*
X014044Y007357D01*
X014103Y007318D01*
X014160Y007276D01*
X014215Y007231D01*
X014267Y007182D01*
X014316Y007131D01*
X014363Y007078D01*
X014406Y007021D01*
X014446Y006963D01*
X014483Y006902D01*
X014517Y006840D01*
X014547Y006776D01*
X014574Y006710D01*
X014597Y006643D01*
X014616Y006574D01*
X014631Y006505D01*
X014643Y006435D01*
X014651Y006364D01*
X014655Y006293D01*
X014655Y006223D01*
X014651Y006152D01*
X014643Y006081D01*
X014631Y006011D01*
X014616Y005942D01*
X014597Y005873D01*
X014574Y005806D01*
X014547Y005740D01*
X014517Y005676D01*
X014483Y005614D01*
X014446Y005553D01*
X014406Y005495D01*
X014363Y005438D01*
X014316Y005385D01*
X014267Y005334D01*
X014215Y005285D01*
X014160Y005240D01*
X014103Y005198D01*
X014044Y005159D01*
X013983Y005123D01*
X013920Y005090D01*
X013855Y005061D01*
X013789Y005036D01*
X013721Y005014D01*
X013652Y004996D01*
X013583Y004982D01*
X013513Y004972D01*
X013442Y004966D01*
X013371Y004963D01*
X013300Y004964D01*
X013229Y004970D01*
X013159Y004979D01*
X013089Y004992D01*
X013020Y005008D01*
X012952Y005029D01*
X012885Y005053D01*
X012820Y005081D01*
X012756Y005112D01*
X012695Y005147D01*
X012635Y005185D01*
X012577Y005227D01*
X012522Y005271D01*
X012469Y005318D01*
X012419Y005369D01*
X012371Y005422D01*
X012327Y005477D01*
X012334Y005482D01*
X012379Y005427D01*
X012426Y005374D01*
X012477Y005323D01*
X012530Y005276D01*
X012586Y005231D01*
X012644Y005190D01*
X012704Y005152D01*
X012766Y005117D01*
X012830Y005086D01*
X012896Y005059D01*
X012963Y005035D01*
X013032Y005015D01*
X013101Y004998D01*
X013171Y004986D01*
X013242Y004977D01*
X013313Y004973D01*
X013384Y004972D01*
X013455Y004976D01*
X013526Y004983D01*
X013597Y004994D01*
X013666Y005009D01*
X013735Y005028D01*
X013803Y005051D01*
X013869Y005077D01*
X013934Y005107D01*
X013996Y005141D01*
X014057Y005177D01*
X014116Y005218D01*
X014173Y005261D01*
X014227Y005308D01*
X014278Y005357D01*
X014326Y005410D01*
X014372Y005464D01*
X014414Y005522D01*
X014453Y005581D01*
X014489Y005643D01*
X014522Y005706D01*
X014550Y005771D01*
X014576Y005838D01*
X014597Y005906D01*
X014615Y005975D01*
X014628Y006045D01*
X014638Y006116D01*
X014644Y006187D01*
X014646Y006258D01*
X014644Y006329D01*
X014638Y006400D01*
X014628Y006471D01*
X014615Y006541D01*
X014597Y006610D01*
X014576Y006678D01*
X014550Y006745D01*
X014522Y006810D01*
X014489Y006873D01*
X014453Y006935D01*
X014414Y006994D01*
X014372Y007052D01*
X014326Y007106D01*
X014278Y007159D01*
X014227Y007208D01*
X014173Y007255D01*
X014116Y007298D01*
X014057Y007339D01*
X013996Y007375D01*
X013934Y007409D01*
X013869Y007439D01*
X013803Y007465D01*
X013735Y007488D01*
X013666Y007507D01*
X013597Y007522D01*
X013526Y007533D01*
X013455Y007540D01*
X013384Y007544D01*
X013313Y007543D01*
X013242Y007539D01*
X013171Y007530D01*
X013101Y007518D01*
X013032Y007501D01*
X012963Y007481D01*
X012896Y007457D01*
X012830Y007430D01*
X012766Y007399D01*
X012704Y007364D01*
X012644Y007326D01*
X012586Y007285D01*
X012530Y007240D01*
X012477Y007193D01*
X012426Y007142D01*
X012379Y007089D01*
X012334Y007034D01*
X012341Y007028D01*
X012386Y007083D01*
X012433Y007136D01*
X012483Y007186D01*
X012536Y007233D01*
X012591Y007277D01*
X012649Y007319D01*
X012708Y007356D01*
X012770Y007391D01*
X012834Y007422D01*
X012899Y007449D01*
X012966Y007473D01*
X013034Y007493D01*
X013103Y007509D01*
X013172Y007521D01*
X013243Y007530D01*
X013313Y007534D01*
X013384Y007535D01*
X013455Y007531D01*
X013525Y007524D01*
X013595Y007513D01*
X013664Y007498D01*
X013732Y007479D01*
X013800Y007457D01*
X013865Y007431D01*
X013930Y007401D01*
X013992Y007368D01*
X014052Y007331D01*
X014111Y007291D01*
X014167Y007248D01*
X014221Y007202D01*
X014271Y007152D01*
X014320Y007101D01*
X014365Y007046D01*
X014407Y006989D01*
X014446Y006930D01*
X014481Y006869D01*
X014514Y006806D01*
X014542Y006741D01*
X014567Y006675D01*
X014588Y006607D01*
X014606Y006539D01*
X014619Y006469D01*
X014629Y006399D01*
X014635Y006329D01*
X014637Y006258D01*
X014635Y006187D01*
X014629Y006117D01*
X014619Y006047D01*
X014606Y005977D01*
X014588Y005909D01*
X014567Y005841D01*
X014542Y005775D01*
X014514Y005710D01*
X014481Y005647D01*
X014446Y005586D01*
X014407Y005527D01*
X014365Y005470D01*
X014320Y005415D01*
X014271Y005364D01*
X014221Y005314D01*
X014167Y005268D01*
X014111Y005225D01*
X014052Y005185D01*
X013992Y005148D01*
X013930Y005115D01*
X013865Y005085D01*
X013800Y005059D01*
X013732Y005037D01*
X013664Y005018D01*
X013595Y005003D01*
X013525Y004992D01*
X013455Y004985D01*
X013384Y004981D01*
X013313Y004982D01*
X013243Y004986D01*
X013172Y004995D01*
X013103Y005007D01*
X013034Y005023D01*
X012966Y005043D01*
X012899Y005067D01*
X012834Y005094D01*
X012770Y005125D01*
X012708Y005160D01*
X012649Y005197D01*
X012591Y005239D01*
X012536Y005283D01*
X012483Y005330D01*
X012433Y005380D01*
X012386Y005433D01*
X012341Y005488D01*
X012349Y005493D01*
X012393Y005438D01*
X012441Y005385D01*
X012491Y005335D01*
X012544Y005287D01*
X012600Y005243D01*
X012658Y005202D01*
X012718Y005165D01*
X012780Y005130D01*
X012844Y005100D01*
X012910Y005073D01*
X012977Y005049D01*
X013045Y005030D01*
X013115Y005014D01*
X013185Y005002D01*
X013255Y004994D01*
X013326Y004990D01*
X013397Y004991D01*
X013468Y004995D01*
X013539Y005003D01*
X013609Y005015D01*
X013678Y005031D01*
X013746Y005050D01*
X013814Y005074D01*
X013879Y005101D01*
X013943Y005132D01*
X014005Y005166D01*
X014065Y005204D01*
X014123Y005246D01*
X014179Y005290D01*
X014232Y005337D01*
X014282Y005388D01*
X014329Y005441D01*
X014374Y005496D01*
X014415Y005554D01*
X014452Y005614D01*
X014487Y005677D01*
X014518Y005741D01*
X014545Y005806D01*
X014568Y005873D01*
X014588Y005942D01*
X014604Y006011D01*
X014616Y006081D01*
X014624Y006152D01*
X014628Y006222D01*
X014628Y006294D01*
X014624Y006364D01*
X014616Y006435D01*
X014604Y006505D01*
X014588Y006574D01*
X014568Y006643D01*
X014545Y006710D01*
X014518Y006775D01*
X014487Y006839D01*
X014452Y006902D01*
X014415Y006962D01*
X014374Y007020D01*
X014329Y007075D01*
X014282Y007128D01*
X014232Y007179D01*
X014179Y007226D01*
X014123Y007270D01*
X014065Y007312D01*
X014005Y007350D01*
X013943Y007384D01*
X013879Y007415D01*
X013814Y007442D01*
X013746Y007466D01*
X013678Y007485D01*
X013609Y007501D01*
X013539Y007513D01*
X013468Y007521D01*
X013397Y007525D01*
X013326Y007526D01*
X013255Y007522D01*
X013185Y007514D01*
X013115Y007502D01*
X013045Y007486D01*
X012977Y007467D01*
X012910Y007443D01*
X012844Y007416D01*
X012780Y007386D01*
X012718Y007351D01*
X012658Y007314D01*
X012600Y007273D01*
X012544Y007229D01*
X012491Y007181D01*
X012441Y007131D01*
X012393Y007078D01*
X012349Y007023D01*
X012356Y007017D01*
X012400Y007072D01*
X012447Y007125D01*
X012497Y007175D01*
X012550Y007222D01*
X012605Y007266D01*
X012663Y007306D01*
X012722Y007344D01*
X012784Y007378D01*
X012848Y007408D01*
X012913Y007435D01*
X012980Y007458D01*
X013048Y007478D01*
X013116Y007493D01*
X013186Y007505D01*
X013256Y007513D01*
X013327Y007517D01*
X013397Y007516D01*
X013468Y007512D01*
X013538Y007504D01*
X013607Y007492D01*
X013676Y007477D01*
X013744Y007457D01*
X013810Y007434D01*
X013875Y007407D01*
X013939Y007376D01*
X014001Y007342D01*
X014060Y007304D01*
X014118Y007263D01*
X014173Y007219D01*
X014226Y007172D01*
X014275Y007122D01*
X014322Y007070D01*
X014366Y007014D01*
X014407Y006957D01*
X014445Y006897D01*
X014479Y006835D01*
X014509Y006772D01*
X014536Y006707D01*
X014560Y006640D01*
X014579Y006572D01*
X014595Y006503D01*
X014607Y006434D01*
X014615Y006364D01*
X014619Y006293D01*
X014619Y006223D01*
X014615Y006152D01*
X014607Y006082D01*
X014595Y006013D01*
X014579Y005944D01*
X014560Y005876D01*
X014536Y005809D01*
X014509Y005744D01*
X014479Y005681D01*
X014445Y005619D01*
X014407Y005559D01*
X014366Y005502D01*
X014322Y005446D01*
X014275Y005394D01*
X014226Y005344D01*
X014173Y005297D01*
X014118Y005253D01*
X014060Y005212D01*
X014001Y005174D01*
X013939Y005140D01*
X013875Y005109D01*
X013810Y005082D01*
X013744Y005059D01*
X013676Y005039D01*
X013607Y005024D01*
X013538Y005012D01*
X013468Y005004D01*
X013397Y005000D01*
X013327Y004999D01*
X013256Y005003D01*
X013186Y005011D01*
X013116Y005023D01*
X013048Y005038D01*
X012980Y005058D01*
X012913Y005081D01*
X012848Y005108D01*
X012784Y005138D01*
X012722Y005172D01*
X012663Y005210D01*
X012605Y005250D01*
X012550Y005294D01*
X012497Y005341D01*
X012447Y005391D01*
X012400Y005444D01*
X012356Y005499D01*
X012363Y005504D01*
X012407Y005449D01*
X012454Y005397D01*
X012503Y005348D01*
X012556Y005301D01*
X012610Y005258D01*
X012668Y005217D01*
X012727Y005180D01*
X012788Y005146D01*
X012852Y005116D01*
X012916Y005089D01*
X012983Y005066D01*
X013050Y005047D01*
X013118Y005032D01*
X013187Y005020D01*
X013257Y005012D01*
X013327Y005008D01*
X013397Y005009D01*
X013467Y005013D01*
X013536Y005021D01*
X013605Y005032D01*
X013674Y005048D01*
X013741Y005067D01*
X013807Y005091D01*
X013872Y005118D01*
X013935Y005148D01*
X013996Y005182D01*
X014055Y005219D01*
X014113Y005260D01*
X014167Y005304D01*
X014219Y005350D01*
X014269Y005400D01*
X014316Y005452D01*
X014359Y005507D01*
X014400Y005564D01*
X014437Y005623D01*
X014471Y005685D01*
X014501Y005748D01*
X014528Y005813D01*
X014551Y005879D01*
X014570Y005946D01*
X014586Y006014D01*
X014598Y006083D01*
X014606Y006153D01*
X014610Y006223D01*
X014610Y006293D01*
X014606Y006363D01*
X014598Y006433D01*
X014586Y006502D01*
X014570Y006570D01*
X014551Y006637D01*
X014528Y006703D01*
X014501Y006768D01*
X014471Y006831D01*
X014437Y006893D01*
X014400Y006952D01*
X014359Y007009D01*
X014316Y007064D01*
X014269Y007116D01*
X014219Y007166D01*
X014167Y007212D01*
X014113Y007256D01*
X014055Y007297D01*
X013996Y007334D01*
X013935Y007368D01*
X013872Y007398D01*
X013807Y007425D01*
X013741Y007449D01*
X013674Y007468D01*
X013605Y007484D01*
X013536Y007495D01*
X013467Y007503D01*
X013397Y007507D01*
X013327Y007508D01*
X013257Y007504D01*
X013187Y007496D01*
X013118Y007484D01*
X013050Y007469D01*
X012983Y007450D01*
X012916Y007427D01*
X012852Y007400D01*
X012788Y007370D01*
X012727Y007336D01*
X012668Y007299D01*
X012610Y007258D01*
X012556Y007215D01*
X012503Y007168D01*
X012454Y007119D01*
X012407Y007067D01*
X012363Y007012D01*
X012370Y007007D01*
X012414Y007061D01*
X012460Y007113D01*
X012509Y007162D01*
X012561Y007208D01*
X012616Y007251D01*
X012673Y007291D01*
X012732Y007328D01*
X012793Y007362D01*
X012855Y007392D01*
X012920Y007418D01*
X012985Y007441D01*
X013052Y007460D01*
X013120Y007476D01*
X013189Y007487D01*
X013258Y007495D01*
X013327Y007499D01*
X013397Y007498D01*
X013466Y007494D01*
X013535Y007487D01*
X013604Y007475D01*
X013671Y007459D01*
X013738Y007440D01*
X013804Y007417D01*
X013868Y007390D01*
X013931Y007360D01*
X013992Y007326D01*
X014050Y007289D01*
X014107Y007249D01*
X014161Y007206D01*
X014213Y007159D01*
X014262Y007110D01*
X014309Y007058D01*
X014352Y007004D01*
X014392Y006947D01*
X014429Y006888D01*
X014463Y006827D01*
X014493Y006764D01*
X014520Y006700D01*
X014543Y006635D01*
X014562Y006568D01*
X014577Y006500D01*
X014589Y006431D01*
X014597Y006362D01*
X014601Y006293D01*
X014601Y006223D01*
X014597Y006154D01*
X014589Y006085D01*
X014577Y006016D01*
X014562Y005948D01*
X014543Y005881D01*
X014520Y005816D01*
X014493Y005752D01*
X014463Y005689D01*
X014429Y005628D01*
X014392Y005569D01*
X014352Y005512D01*
X014309Y005458D01*
X014262Y005406D01*
X014213Y005357D01*
X014161Y005310D01*
X014107Y005267D01*
X014050Y005227D01*
X013992Y005190D01*
X013931Y005156D01*
X013868Y005126D01*
X013804Y005099D01*
X013738Y005076D01*
X013671Y005057D01*
X013604Y005041D01*
X013535Y005029D01*
X013466Y005022D01*
X013397Y005018D01*
X013327Y005017D01*
X013258Y005021D01*
X013189Y005029D01*
X013120Y005040D01*
X013052Y005056D01*
X012985Y005075D01*
X012920Y005098D01*
X012855Y005124D01*
X012793Y005154D01*
X012732Y005188D01*
X012673Y005225D01*
X012616Y005265D01*
X012561Y005308D01*
X012509Y005354D01*
X012460Y005403D01*
X012414Y005455D01*
X012370Y005509D01*
X012377Y005515D01*
X012421Y005461D01*
X012467Y005410D01*
X012516Y005361D01*
X012567Y005315D01*
X012621Y005272D01*
X012678Y005232D01*
X012736Y005196D01*
X012797Y005162D01*
X012859Y005132D01*
X012923Y005106D01*
X012988Y005084D01*
X013054Y005065D01*
X013122Y005049D01*
X013190Y005038D01*
X013258Y005030D01*
X013327Y005026D01*
X013396Y005027D01*
X013465Y005031D01*
X013534Y005038D01*
X013602Y005050D01*
X013669Y005065D01*
X013736Y005085D01*
X013801Y005108D01*
X013864Y005134D01*
X013927Y005164D01*
X013987Y005197D01*
X014045Y005234D01*
X014102Y005274D01*
X014156Y005317D01*
X014207Y005363D01*
X014256Y005412D01*
X014302Y005464D01*
X014345Y005518D01*
X014385Y005574D01*
X014421Y005633D01*
X014455Y005693D01*
X014485Y005755D01*
X014511Y005819D01*
X014534Y005884D01*
X014553Y005951D01*
X014568Y006018D01*
X014580Y006086D01*
X014588Y006155D01*
X014592Y006223D01*
X014592Y006293D01*
X014588Y006361D01*
X014580Y006430D01*
X014568Y006498D01*
X014553Y006565D01*
X014534Y006632D01*
X014511Y006697D01*
X014485Y006761D01*
X014455Y006823D01*
X014421Y006883D01*
X014385Y006942D01*
X014345Y006998D01*
X014302Y007052D01*
X014256Y007104D01*
X014207Y007153D01*
X014156Y007199D01*
X014102Y007242D01*
X014045Y007282D01*
X013987Y007319D01*
X013927Y007352D01*
X013864Y007382D01*
X013801Y007408D01*
X013736Y007431D01*
X013669Y007451D01*
X013602Y007466D01*
X013534Y007478D01*
X013465Y007485D01*
X013396Y007489D01*
X013327Y007490D01*
X013258Y007486D01*
X013190Y007478D01*
X013122Y007467D01*
X013054Y007451D01*
X012988Y007432D01*
X012923Y007410D01*
X012859Y007384D01*
X012797Y007354D01*
X012736Y007320D01*
X012678Y007284D01*
X012621Y007244D01*
X012567Y007201D01*
X012516Y007155D01*
X012467Y007106D01*
X012421Y007055D01*
X012377Y007001D01*
X012385Y006996D01*
X012428Y007050D01*
X012474Y007101D01*
X012524Y007150D01*
X012575Y007196D01*
X012630Y007239D01*
X012687Y007279D01*
X012745Y007315D01*
X012806Y007349D01*
X012869Y007378D01*
X012933Y007404D01*
X012999Y007426D01*
X013066Y007445D01*
X013133Y007460D01*
X013202Y007471D01*
X013271Y007478D01*
X013340Y007481D01*
X013409Y007480D01*
X013479Y007475D01*
X013547Y007467D01*
X013615Y007454D01*
X013683Y007438D01*
X013749Y007417D01*
X013814Y007394D01*
X013878Y007366D01*
X013940Y007335D01*
X014000Y007300D01*
X014058Y007262D01*
X014114Y007221D01*
X014167Y007177D01*
X014218Y007130D01*
X014266Y007080D01*
X014311Y007027D01*
X014353Y006972D01*
X014392Y006915D01*
X014427Y006855D01*
X014459Y006794D01*
X014488Y006731D01*
X014513Y006666D01*
X014534Y006600D01*
X014552Y006533D01*
X014565Y006465D01*
X014575Y006396D01*
X014581Y006327D01*
X014583Y006258D01*
X014581Y006189D01*
X014575Y006120D01*
X014565Y006051D01*
X014552Y005983D01*
X014534Y005916D01*
X014513Y005850D01*
X014488Y005785D01*
X014459Y005722D01*
X014427Y005661D01*
X014392Y005601D01*
X014353Y005544D01*
X014311Y005489D01*
X014266Y005436D01*
X014218Y005386D01*
X014167Y005339D01*
X014114Y005295D01*
X014058Y005254D01*
X014000Y005216D01*
X013940Y005181D01*
X013878Y005150D01*
X013814Y005122D01*
X013749Y005099D01*
X013683Y005078D01*
X013615Y005062D01*
X013547Y005049D01*
X013479Y005041D01*
X013409Y005036D01*
X013340Y005035D01*
X013271Y005038D01*
X013202Y005045D01*
X013133Y005056D01*
X013066Y005071D01*
X012999Y005090D01*
X012933Y005112D01*
X012869Y005138D01*
X012806Y005167D01*
X012745Y005201D01*
X012687Y005237D01*
X012630Y005277D01*
X012575Y005320D01*
X012524Y005366D01*
X012474Y005415D01*
X012428Y005466D01*
X012385Y005520D01*
X012392Y005526D01*
X012435Y005472D01*
X012481Y005421D01*
X012530Y005372D01*
X012581Y005327D01*
X012635Y005284D01*
X012692Y005245D01*
X012750Y005208D01*
X012810Y005175D01*
X012873Y005146D01*
X012936Y005120D01*
X013002Y005098D01*
X013068Y005080D01*
X013135Y005065D01*
X013203Y005054D01*
X013272Y005047D01*
X013340Y005044D01*
X013409Y005045D01*
X013478Y005050D01*
X013546Y005058D01*
X013614Y005071D01*
X013680Y005087D01*
X013746Y005107D01*
X013811Y005131D01*
X013874Y005158D01*
X013935Y005189D01*
X013995Y005223D01*
X014053Y005261D01*
X014108Y005302D01*
X014161Y005346D01*
X014211Y005393D01*
X014259Y005442D01*
X014304Y005494D01*
X014346Y005549D01*
X014384Y005606D01*
X014419Y005665D01*
X014451Y005726D01*
X014480Y005789D01*
X014504Y005853D01*
X014526Y005919D01*
X014543Y005985D01*
X014556Y006053D01*
X014566Y006121D01*
X014572Y006189D01*
X014574Y006258D01*
X014572Y006327D01*
X014566Y006395D01*
X014556Y006463D01*
X014543Y006531D01*
X014526Y006597D01*
X014504Y006663D01*
X014480Y006727D01*
X014451Y006790D01*
X014419Y006851D01*
X014384Y006910D01*
X014346Y006967D01*
X014304Y007022D01*
X014259Y007074D01*
X014211Y007123D01*
X014161Y007170D01*
X014108Y007214D01*
X014053Y007255D01*
X013995Y007293D01*
X013935Y007327D01*
X013874Y007358D01*
X013811Y007385D01*
X013746Y007409D01*
X013680Y007429D01*
X013614Y007445D01*
X013546Y007458D01*
X013478Y007466D01*
X013409Y007471D01*
X013340Y007472D01*
X013272Y007469D01*
X013203Y007462D01*
X013135Y007451D01*
X013068Y007436D01*
X013002Y007418D01*
X012936Y007396D01*
X012873Y007370D01*
X012810Y007341D01*
X012750Y007308D01*
X012692Y007271D01*
X012635Y007232D01*
X012581Y007189D01*
X012530Y007144D01*
X012481Y007095D01*
X012435Y007044D01*
X012392Y006990D01*
X013865Y014968D02*
X013865Y015044D01*
X013890Y015069D01*
X013940Y015069D01*
X013965Y015044D01*
X013965Y014968D01*
X014015Y014968D02*
X013865Y014968D01*
X013965Y015019D02*
X014015Y015069D01*
X014015Y015116D02*
X014015Y015216D01*
X014015Y015166D02*
X013865Y015166D01*
X013915Y015116D01*
D14*
X013660Y015258D02*
X013360Y015258D01*
X013360Y015358D01*
X013360Y015258D02*
X013060Y015258D01*
X013060Y013258D01*
X013360Y013258D01*
X013360Y013158D01*
X013360Y013258D02*
X013660Y013258D01*
X013660Y015258D01*
X012477Y011920D02*
X004406Y011920D01*
X004406Y010935D01*
X012477Y010935D01*
X012477Y011920D01*
X012360Y007008D02*
X012360Y005508D01*
X003822Y005626D02*
X003822Y006122D01*
X003055Y006122D01*
X002610Y007508D02*
X002610Y008008D01*
X003060Y008468D02*
X003060Y011048D01*
X001660Y011048D01*
X001660Y008468D01*
X003060Y008468D01*
X001166Y006122D02*
X000399Y006122D01*
X000399Y001789D01*
X003822Y001789D01*
X003822Y003776D01*
X001360Y011758D02*
X001360Y012258D01*
X000580Y012508D02*
X000582Y012579D01*
X000588Y012650D01*
X000598Y012721D01*
X000612Y012790D01*
X000629Y012859D01*
X000651Y012927D01*
X000676Y012994D01*
X000705Y013059D01*
X000737Y013122D01*
X000773Y013184D01*
X000812Y013243D01*
X000855Y013300D01*
X000900Y013355D01*
X000949Y013407D01*
X001000Y013456D01*
X001054Y013502D01*
X001111Y013546D01*
X001169Y013586D01*
X001230Y013622D01*
X001293Y013656D01*
X001358Y013685D01*
X001424Y013711D01*
X001492Y013734D01*
X001560Y013752D01*
X001630Y013767D01*
X001700Y013778D01*
X001771Y013785D01*
X001842Y013788D01*
X001913Y013787D01*
X001984Y013782D01*
X002055Y013773D01*
X002125Y013760D01*
X002194Y013744D01*
X002262Y013723D01*
X002329Y013699D01*
X002395Y013671D01*
X002458Y013639D01*
X002520Y013604D01*
X002580Y013566D01*
X002638Y013524D01*
X002693Y013480D01*
X002746Y013432D01*
X002796Y013381D01*
X002843Y013328D01*
X002887Y013272D01*
X002928Y013214D01*
X002966Y013153D01*
X003000Y013091D01*
X003030Y013026D01*
X003057Y012961D01*
X003081Y012893D01*
X003100Y012825D01*
X003116Y012756D01*
X003128Y012685D01*
X003136Y012615D01*
X003140Y012544D01*
X003140Y012472D01*
X003136Y012401D01*
X003128Y012331D01*
X003116Y012260D01*
X003100Y012191D01*
X003081Y012123D01*
X003057Y012055D01*
X003030Y011990D01*
X003000Y011925D01*
X002966Y011863D01*
X002928Y011802D01*
X002887Y011744D01*
X002843Y011688D01*
X002796Y011635D01*
X002746Y011584D01*
X002693Y011536D01*
X002638Y011492D01*
X002580Y011450D01*
X002520Y011412D01*
X002458Y011377D01*
X002395Y011345D01*
X002329Y011317D01*
X002262Y011293D01*
X002194Y011272D01*
X002125Y011256D01*
X002055Y011243D01*
X001984Y011234D01*
X001913Y011229D01*
X001842Y011228D01*
X001771Y011231D01*
X001700Y011238D01*
X001630Y011249D01*
X001560Y011264D01*
X001492Y011282D01*
X001424Y011305D01*
X001358Y011331D01*
X001293Y011360D01*
X001230Y011394D01*
X001169Y011430D01*
X001111Y011470D01*
X001054Y011514D01*
X001000Y011560D01*
X000949Y011609D01*
X000900Y011661D01*
X000855Y011716D01*
X000812Y011773D01*
X000773Y011832D01*
X000737Y011894D01*
X000705Y011957D01*
X000676Y012022D01*
X000651Y012089D01*
X000629Y012157D01*
X000612Y012226D01*
X000598Y012295D01*
X000588Y012366D01*
X000582Y012437D01*
X000580Y012508D01*
X004406Y019597D02*
X012477Y019597D01*
X012477Y020581D01*
X004406Y020581D01*
X004406Y019597D01*
D15*
X002805Y019642D02*
X002505Y019642D01*
X002355Y019792D01*
X002505Y019942D01*
X002805Y019942D01*
X002805Y020103D02*
X002805Y020403D01*
X002805Y020103D02*
X002355Y020103D01*
X002580Y019942D02*
X002580Y019642D01*
X002355Y019485D02*
X002355Y019335D01*
X002355Y019410D02*
X002805Y019410D01*
X002805Y019335D02*
X002805Y019485D01*
X002805Y019175D02*
X002655Y019025D01*
X002655Y019100D02*
X002655Y018875D01*
X002805Y018875D02*
X002355Y018875D01*
X002355Y019100D01*
X002430Y019175D01*
X002580Y019175D01*
X002655Y019100D01*
X002805Y018715D02*
X002805Y018415D01*
X002355Y018415D01*
X002355Y018715D01*
X002580Y018565D02*
X002580Y018415D01*
X002655Y018254D02*
X002580Y018179D01*
X002580Y018029D01*
X002505Y017954D01*
X002430Y017954D01*
X002355Y018029D01*
X002355Y018179D01*
X002430Y018254D01*
X002655Y018254D02*
X002730Y018254D01*
X002805Y018179D01*
X002805Y018029D01*
X002730Y017954D01*
X002301Y022558D02*
X002303Y022605D01*
X002309Y022651D01*
X002319Y022697D01*
X002332Y022742D01*
X002349Y022785D01*
X002370Y022827D01*
X002394Y022867D01*
X002422Y022905D01*
X002453Y022941D01*
X002486Y022973D01*
X002522Y023003D01*
X002560Y023030D01*
X002601Y023053D01*
X002643Y023073D01*
X002687Y023090D01*
X002732Y023102D01*
X002778Y023111D01*
X002825Y023116D01*
X002872Y023117D01*
X002918Y023114D01*
X002965Y023107D01*
X003010Y023096D01*
X003055Y023082D01*
X003098Y023064D01*
X003139Y023042D01*
X003179Y023017D01*
X003216Y022989D01*
X003251Y022957D01*
X003283Y022923D01*
X003312Y022887D01*
X003338Y022848D01*
X003361Y022807D01*
X003380Y022764D01*
X003395Y022720D01*
X003407Y022674D01*
X003415Y022628D01*
X003419Y022581D01*
X003419Y022535D01*
X003415Y022488D01*
X003407Y022442D01*
X003395Y022396D01*
X003380Y022352D01*
X003361Y022309D01*
X003338Y022268D01*
X003312Y022229D01*
X003283Y022193D01*
X003251Y022159D01*
X003216Y022127D01*
X003179Y022099D01*
X003140Y022074D01*
X003098Y022052D01*
X003055Y022034D01*
X003010Y022020D01*
X002965Y022009D01*
X002918Y022002D01*
X002872Y021999D01*
X002825Y022000D01*
X002778Y022005D01*
X002732Y022014D01*
X002687Y022026D01*
X002643Y022043D01*
X002601Y022063D01*
X002560Y022086D01*
X002522Y022113D01*
X002486Y022143D01*
X002453Y022175D01*
X002422Y022211D01*
X002394Y022249D01*
X002370Y022289D01*
X002349Y022331D01*
X002332Y022374D01*
X002319Y022419D01*
X002309Y022465D01*
X002303Y022511D01*
X002301Y022558D01*
X001860Y024258D02*
X001860Y001758D01*
X004860Y001758D01*
X004860Y009658D01*
X011360Y009658D01*
X011360Y001758D01*
X004860Y001758D01*
X004860Y000458D01*
X011360Y000458D01*
X011360Y001758D01*
X015060Y001758D01*
X015060Y024258D01*
X006860Y024258D01*
X001860Y024258D01*
X006960Y023258D02*
X006960Y021658D01*
X011560Y021658D01*
X011560Y023258D01*
X006960Y023258D01*
X012901Y022658D02*
X012903Y022705D01*
X012909Y022751D01*
X012919Y022797D01*
X012932Y022842D01*
X012949Y022885D01*
X012970Y022927D01*
X012994Y022967D01*
X013022Y023005D01*
X013053Y023041D01*
X013086Y023073D01*
X013122Y023103D01*
X013160Y023130D01*
X013201Y023153D01*
X013243Y023173D01*
X013287Y023190D01*
X013332Y023202D01*
X013378Y023211D01*
X013425Y023216D01*
X013472Y023217D01*
X013518Y023214D01*
X013565Y023207D01*
X013610Y023196D01*
X013655Y023182D01*
X013698Y023164D01*
X013739Y023142D01*
X013779Y023117D01*
X013816Y023089D01*
X013851Y023057D01*
X013883Y023023D01*
X013912Y022987D01*
X013938Y022948D01*
X013961Y022907D01*
X013980Y022864D01*
X013995Y022820D01*
X014007Y022774D01*
X014015Y022728D01*
X014019Y022681D01*
X014019Y022635D01*
X014015Y022588D01*
X014007Y022542D01*
X013995Y022496D01*
X013980Y022452D01*
X013961Y022409D01*
X013938Y022368D01*
X013912Y022329D01*
X013883Y022293D01*
X013851Y022259D01*
X013816Y022227D01*
X013779Y022199D01*
X013740Y022174D01*
X013698Y022152D01*
X013655Y022134D01*
X013610Y022120D01*
X013565Y022109D01*
X013518Y022102D01*
X013472Y022099D01*
X013425Y022100D01*
X013378Y022105D01*
X013332Y022114D01*
X013287Y022126D01*
X013243Y022143D01*
X013201Y022163D01*
X013160Y022186D01*
X013122Y022213D01*
X013086Y022243D01*
X013053Y022275D01*
X013022Y022311D01*
X012994Y022349D01*
X012970Y022389D01*
X012949Y022431D01*
X012932Y022474D01*
X012919Y022519D01*
X012909Y022565D01*
X012903Y022611D01*
X012901Y022658D01*
X011825Y006023D02*
X011675Y005873D01*
X011515Y005948D02*
X011515Y005648D01*
X011440Y005573D01*
X011215Y005573D01*
X011215Y006023D01*
X011440Y006023D01*
X011515Y005948D01*
X011675Y005573D02*
X011975Y005573D01*
X011825Y005573D02*
X011825Y006023D01*
X011055Y006023D02*
X010754Y006023D01*
X010754Y005573D01*
X011055Y005573D01*
X010904Y005798D02*
X010754Y005798D01*
X010594Y005573D02*
X010294Y005573D01*
X010294Y006023D01*
X011360Y001758D02*
X004860Y001758D01*
X002401Y003158D02*
X002403Y003205D01*
X002409Y003251D01*
X002419Y003297D01*
X002432Y003342D01*
X002449Y003385D01*
X002470Y003427D01*
X002494Y003467D01*
X002522Y003505D01*
X002553Y003541D01*
X002586Y003573D01*
X002622Y003603D01*
X002660Y003630D01*
X002701Y003653D01*
X002743Y003673D01*
X002787Y003690D01*
X002832Y003702D01*
X002878Y003711D01*
X002925Y003716D01*
X002972Y003717D01*
X003018Y003714D01*
X003065Y003707D01*
X003110Y003696D01*
X003155Y003682D01*
X003198Y003664D01*
X003239Y003642D01*
X003279Y003617D01*
X003316Y003589D01*
X003351Y003557D01*
X003383Y003523D01*
X003412Y003487D01*
X003438Y003448D01*
X003461Y003407D01*
X003480Y003364D01*
X003495Y003320D01*
X003507Y003274D01*
X003515Y003228D01*
X003519Y003181D01*
X003519Y003135D01*
X003515Y003088D01*
X003507Y003042D01*
X003495Y002996D01*
X003480Y002952D01*
X003461Y002909D01*
X003438Y002868D01*
X003412Y002829D01*
X003383Y002793D01*
X003351Y002759D01*
X003316Y002727D01*
X003279Y002699D01*
X003240Y002674D01*
X003198Y002652D01*
X003155Y002634D01*
X003110Y002620D01*
X003065Y002609D01*
X003018Y002602D01*
X002972Y002599D01*
X002925Y002600D01*
X002878Y002605D01*
X002832Y002614D01*
X002787Y002626D01*
X002743Y002643D01*
X002701Y002663D01*
X002660Y002686D01*
X002622Y002713D01*
X002586Y002743D01*
X002553Y002775D01*
X002522Y002811D01*
X002494Y002849D01*
X002470Y002889D01*
X002449Y002931D01*
X002432Y002974D01*
X002419Y003019D01*
X002409Y003065D01*
X002403Y003111D01*
X002401Y003158D01*
X012901Y003158D02*
X012903Y003205D01*
X012909Y003251D01*
X012919Y003297D01*
X012932Y003342D01*
X012949Y003385D01*
X012970Y003427D01*
X012994Y003467D01*
X013022Y003505D01*
X013053Y003541D01*
X013086Y003573D01*
X013122Y003603D01*
X013160Y003630D01*
X013201Y003653D01*
X013243Y003673D01*
X013287Y003690D01*
X013332Y003702D01*
X013378Y003711D01*
X013425Y003716D01*
X013472Y003717D01*
X013518Y003714D01*
X013565Y003707D01*
X013610Y003696D01*
X013655Y003682D01*
X013698Y003664D01*
X013739Y003642D01*
X013779Y003617D01*
X013816Y003589D01*
X013851Y003557D01*
X013883Y003523D01*
X013912Y003487D01*
X013938Y003448D01*
X013961Y003407D01*
X013980Y003364D01*
X013995Y003320D01*
X014007Y003274D01*
X014015Y003228D01*
X014019Y003181D01*
X014019Y003135D01*
X014015Y003088D01*
X014007Y003042D01*
X013995Y002996D01*
X013980Y002952D01*
X013961Y002909D01*
X013938Y002868D01*
X013912Y002829D01*
X013883Y002793D01*
X013851Y002759D01*
X013816Y002727D01*
X013779Y002699D01*
X013740Y002674D01*
X013698Y002652D01*
X013655Y002634D01*
X013610Y002620D01*
X013565Y002609D01*
X013518Y002602D01*
X013472Y002599D01*
X013425Y002600D01*
X013378Y002605D01*
X013332Y002614D01*
X013287Y002626D01*
X013243Y002643D01*
X013201Y002663D01*
X013160Y002686D01*
X013122Y002713D01*
X013086Y002743D01*
X013053Y002775D01*
X013022Y002811D01*
X012994Y002849D01*
X012970Y002889D01*
X012949Y002931D01*
X012932Y002974D01*
X012919Y003019D01*
X012909Y003065D01*
X012903Y003111D01*
X012901Y003158D01*
D16*
X002860Y009550D02*
X002860Y009704D01*
X002860Y009627D02*
X002400Y009627D01*
X002400Y009550D02*
X002400Y009704D01*
X002477Y009857D02*
X002784Y009857D01*
X002860Y009934D01*
X002860Y010087D01*
X002784Y010164D01*
X002860Y010318D02*
X002860Y010625D01*
X002860Y010471D02*
X002400Y010471D01*
X002554Y010318D01*
X002477Y010164D02*
X002400Y010087D01*
X002400Y009934D01*
X002477Y009857D01*
M02*
