%
M48
M72
T01C0.0276
T02C0.0315
T03C0.0320
T04C0.0354
T05C0.0400
T06C0.1180
T07C0.1260
%
T01
X1626Y7758
X3595Y7758
X1860Y12008
X1860Y13008
T02
X4898Y11427
X5685Y11427
X6473Y11427
X7260Y11427
X8047Y11427
X8835Y11427
X9622Y11427
X10410Y11427
X11197Y11427
X11984Y11427
X11984Y20089
X11197Y20089
X10410Y20089
X9622Y20089
X8835Y20089
X8047Y20089
X7260Y20089
X6473Y20089
X5685Y20089
X4898Y20089
X7260Y21958
X7260Y22958
X8260Y22958
X8260Y21958
X9260Y21958
X9260Y22958
X10260Y22958
X10260Y21958
X11260Y21958
X11260Y22958
T03
X12860Y6258
X13860Y6258
T04
X13360Y12758
X13360Y15758
T05
X1610Y18008
X1610Y19008
X1610Y20008
T06
X2120Y3110
X3611Y4721
T07
X2110Y5972
M30
