G75*
G70*
%OFA0B0*%
%FSLAX24Y24*%
%IPPOS*%
%LPD*%
%AMOC8*
5,1,8,0,0,1.08239X$1,22.5*
%
%ADD10C,0.0060*%
%ADD11C,0.0160*%
%ADD12C,0.0000*%
D10*
X006390Y002895D02*
X006497Y002788D01*
X006711Y002788D01*
X006817Y002895D01*
X007035Y002895D02*
X007035Y003429D01*
X006817Y003322D02*
X006711Y003429D01*
X006497Y003429D01*
X006390Y003322D01*
X006390Y002895D01*
X007035Y002895D02*
X007142Y002788D01*
X007355Y002788D01*
X007462Y002895D01*
X007462Y003429D01*
X007680Y003429D02*
X008107Y003429D01*
X007893Y003429D02*
X007893Y002788D01*
X008969Y002895D02*
X009075Y002788D01*
X009289Y002788D01*
X009396Y002895D01*
X009396Y003322D01*
X009289Y003429D01*
X009075Y003429D01*
X008969Y003322D01*
X008969Y002895D01*
X009613Y002895D02*
X009720Y002788D01*
X009933Y002788D01*
X010040Y002895D01*
X010040Y003429D01*
X010258Y003429D02*
X010685Y003429D01*
X010471Y003429D02*
X010471Y002788D01*
X009613Y002895D02*
X009613Y003429D01*
D11*
X009860Y004758D02*
X006860Y007258D01*
X006860Y004758D02*
X009860Y007258D01*
D12*
X000110Y001758D02*
X000110Y024508D01*
X015360Y024508D01*
X015360Y001758D01*
X011610Y001758D01*
X011610Y010008D01*
X004610Y010008D01*
X004610Y001758D01*
X000110Y001758D01*
M02*
